<?xml version="1.0" standalone="no"?>
<!DOCTYPE svg PUBLIC "-//W3C//DTD SVG 20010904//EN"
 "http://www.w3.org/TR/2001/REC-SVG-20010904/DTD/svg10.dtd">
<svg version="1.0" xmlns="http://www.w3.org/2000/svg"
 width="400.000000pt" height="400.000000pt" viewBox="0 0 400.000000 400.000000"
 preserveAspectRatio="xMidYMid meet">

<g transform="translate(0.000000,400.000000) scale(0.100000,-0.100000)"
fill="#000000" stroke="none">
<path d="M0 3990 c0 -5 4 -10 9 -10 6 0 13 5 16 10 3 6 -1 10 -9 10 -9 0 -16
-4 -16 -10z"/>
<path d="M53 3984 c-3 -9 -1 -25 6 -35 7 -13 8 -19 0 -19 -5 0 -7 -4 -4 -10 6
-11 -22 -3 -40 11 -7 5 -11 -7 -10 -36 0 -48 6 -51 43 -27 25 16 50 4 37 -18
-6 -9 -9 -9 -15 0 -13 21 -32 -1 -28 -31 l5 -29 -22 20 -22 21 -1 -46 c0 -25
3 -43 8 -40 4 3 10 -4 13 -14 5 -22 53 -33 67 -16 5 6 8 14 6 16 -2 2 11 4 29
4 18 0 37 -3 41 -7 4 -5 -3 -8 -15 -8 -31 0 -79 -54 -87 -97 -6 -34 -3 -45 36
-123 4 -8 15 -15 24 -15 15 0 35 -21 36 -36 0 -4 -7 -10 -16 -13 -22 -9 -69
27 -88 69 -10 20 -21 33 -27 30 -5 -4 -9 3 -9 15 0 12 -5 18 -10 15 -16 -10
-12 -47 8 -62 16 -14 16 -14 -1 -9 -15 5 -18 1 -15 -27 2 -24 8 -32 23 -32 16
0 19 -6 17 -29 -2 -16 -12 -41 -23 -54 -26 -34 -26 -66 1 -59 15 4 20 0 20
-14 0 -12 -7 -19 -20 -19 -26 0 -27 -42 -3 -61 16 -13 17 -12 4 4 -12 15 -12
17 3 11 9 -3 16 -17 16 -31 0 -22 -1 -23 -16 -9 -21 21 -21 21 -21 -16 0 -18
2 -27 5 -20 2 6 11 12 20 12 12 0 11 -4 -6 -23 -12 -13 -22 -33 -22 -44 0 -18
5 -21 26 -17 18 3 25 1 22 -8 -3 -7 -14 -14 -26 -16 -34 -5 -26 -47 9 -50 15
-1 30 2 34 8 4 6 15 2 27 -10 20 -19 47 -15 62 8 7 12 -26 12 -40 0 -7 -5 -14
-3 -17 6 -3 8 0 17 7 19 7 3 23 44 35 91 25 102 26 113 7 97 -7 -6 -20 -9 -29
-6 -13 6 -13 10 0 37 14 28 14 33 -1 59 -13 21 -14 34 -7 48 8 14 7 22 -3 30
-8 7 -16 21 -19 32 -5 17 -1 16 28 -8 19 -16 33 -35 31 -43 -2 -11 6 -15 33
-14 62 1 66 3 53 16 -14 14 -16 54 -3 62 5 4 7 -3 4 -13 -3 -10 1 -29 7 -42
11 -19 9 -24 -11 -40 -26 -20 -44 -25 -35 -10 4 5 -4 7 -16 3 -16 -4 -19 -2
-13 8 6 9 4 11 -4 5 -9 -5 -10 -10 -2 -18 6 -6 11 -19 11 -29 0 -10 5 -18 11
-18 6 0 9 -6 6 -14 -3 -8 -2 -16 3 -18 12 -4 20 -180 10 -224 -10 -41 -65
-104 -92 -104 -10 0 -37 14 -60 30 -42 31 -61 33 -38 5 7 -8 8 -15 3 -15 -5 0
-10 -20 -10 -43 -1 -41 0 -44 23 -39 25 4 30 -4 16 -26 -5 -7 -16 -10 -25 -6
-14 5 -17 0 -17 -25 0 -27 4 -31 26 -31 20 0 25 -4 20 -16 -3 -9 -6 -20 -6
-26 0 -5 -7 -2 -16 7 -20 20 -32 11 -14 -10 8 -10 9 -15 1 -15 -6 0 -11 -7
-11 -16 0 -14 2 -15 17 -3 17 13 17 12 0 -7 -24 -29 -23 -144 2 -141 18 2 21
-3 21 -35 0 -18 -2 -20 -9 -8 -6 8 -7 18 -5 22 3 4 -1 5 -9 2 -8 -3 -14 -18
-15 -34 0 -23 3 -28 16 -23 15 6 15 5 -1 -14 -12 -14 -17 -37 -17 -76 0 -31 3
-56 8 -56 23 4 32 -4 32 -26 0 -23 -2 -24 -20 -15 -23 12 -25 7 -9 -22 6 -12
7 -18 1 -14 -6 3 -10 -8 -9 -28 1 -23 5 -32 14 -29 7 3 13 10 13 17 0 6 5 4
10 -6 13 -21 3 -45 -21 -51 -17 -5 -19 -14 -19 -85 0 -55 4 -82 12 -85 10 -4
10 -6 1 -6 -7 -1 -13 -8 -13 -18 0 -15 1 -15 19 1 17 16 19 16 25 -1 7 -16
-16 -43 -36 -43 -4 0 -8 -10 -8 -21 0 -16 5 -20 19 -16 12 3 22 -1 25 -9 5
-13 -5 -18 -32 -15 -18 3 -15 -39 6 -63 16 -20 16 -20 -1 -7 -15 12 -17 11
-17 -3 0 -9 5 -16 12 -16 9 0 9 -3 0 -12 -19 -19 -14 -30 7 -18 11 5 22 6 25
2 7 -12 -23 -53 -35 -47 -17 11 -10 -107 8 -127 9 -10 11 -18 5 -18 -6 0 -13
6 -15 13 -3 6 -5 -4 -5 -25 1 -25 5 -35 14 -31 7 2 15 10 17 16 2 7 3 4 2 -5
-2 -10 1 -21 6 -24 11 -7 2 -24 -13 -24 -5 0 -7 7 -4 16 5 13 4 14 -7 5 -19
-15 -22 -128 -5 -149 10 -12 10 -14 1 -8 -8 4 -13 1 -13 -8 0 -9 5 -16 11 -16
8 0 7 -5 -1 -15 -17 -21 -6 -30 13 -11 13 14 15 13 20 -4 6 -23 0 -30 -25 -30
-14 0 -18 -8 -18 -31 0 -25 3 -30 17 -25 15 6 32 -8 33 -26 0 -13 -38 -9 -43
5 -3 6 -6 2 -6 -11 -1 -13 4 -32 10 -44 11 -20 11 -20 37 4 l27 23 -24 -27
c-19 -21 -27 -25 -38 -17 -10 9 -13 8 -13 -5 0 -9 5 -16 11 -16 8 0 7 -5 -1
-15 -7 -9 -11 -17 -9 -20 7 -6 69 36 69 46 0 5 13 9 28 9 37 0 91 -55 102
-105 10 -45 2 -219 -10 -223 -5 -2 -7 -9 -4 -16 3 -8 -2 -16 -10 -19 -9 -4
-13 -13 -10 -22 4 -8 1 -15 -6 -15 -7 0 -10 -7 -6 -15 3 -8 1 -15 -4 -15 -5 0
-7 -6 -5 -13 3 -6 -12 -25 -32 -42 l-38 -30 22 37 c14 24 18 39 11 46 -7 7 -5
20 7 40 16 27 16 32 2 60 -13 27 -13 31 0 37 9 3 22 0 29 -6 19 -15 18 -7 -6
93 -11 46 -26 88 -34 94 -9 6 -11 15 -7 23 6 9 11 10 15 3 9 -15 45 -11 39 4
-7 18 -38 23 -57 8 -16 -11 -18 -27 -15 -141 1 -70 1 -153 -1 -183 -3 -30 -7
28 -10 130 l-5 185 -30 1 c-26 1 -31 -3 -33 -24 -2 -20 2 -23 17 -19 12 3 22
-1 25 -10 9 -23 7 -26 -19 -21 -20 4 -25 1 -25 -15 0 -12 10 -31 22 -45 16
-16 18 -23 8 -20 -8 2 -18 7 -21 11 -3 4 -6 -6 -6 -23 0 -35 1 -35 21 -14 15
14 16 13 16 -9 0 -14 -7 -28 -16 -31 -15 -6 -15 -4 -3 11 13 16 12 17 -4 4
-24 -19 -23 -61 2 -61 10 0 21 -9 24 -20 4 -17 1 -19 -19 -14 -30 8 -33 -20
-5 -50 11 -12 21 -34 23 -51 2 -24 -1 -30 -17 -30 -15 0 -21 -8 -23 -32 -3
-28 0 -32 15 -27 17 5 17 5 0 -9 -19 -15 -23 -52 -7 -62 5 -3 10 3 10 15 0 12
4 19 9 15 6 -3 17 11 27 30 15 32 57 75 73 75 3 0 12 -4 20 -9 18 -11 -1 -46
-25 -46 -9 0 -20 -7 -24 -15 -39 -78 -42 -89 -36 -123 8 -43 56 -97 87 -97 12
0 19 -3 15 -8 -4 -4 -23 -7 -41 -7 -18 0 -31 2 -29 4 2 2 -1 10 -6 16 -14 17
-62 6 -67 -16 -3 -10 -9 -17 -13 -14 -5 3 -8 -15 -8 -40 l1 -46 22 21 22 20
-5 -29 c-4 -30 15 -52 28 -31 6 9 9 9 15 0 15 -24 -13 -34 -42 -15 -15 10 -30
17 -33 14 -10 -9 -6 -88 5 -80 18 14 46 22 40 11 -3 -6 -1 -10 4 -10 8 0 7 -6
0 -19 -15 -23 -5 -51 18 -50 11 0 13 3 6 6 -20 8 -15 23 8 23 11 0 17 -4 14
-10 -3 -5 1 -10 9 -10 10 0 13 6 9 17 -5 13 -3 15 13 9 16 -6 16 -4 -4 17 -21
23 -21 37 2 37 6 0 4 -4 -4 -10 -12 -8 -12 -10 4 -16 22 -8 65 -10 86 -2 8 2
12 3 7 1 -19 -12 -3 -20 37 -19 38 1 43 3 35 18 -16 30 -10 39 15 23 13 -9 47
-18 75 -22 44 -5 57 -2 84 17 31 22 31 22 13 2 -29 -34 -2 -26 33 9 17 17 31
27 31 22 0 -4 -19 -25 -42 -46 -24 -20 -36 -35 -28 -33 8 2 28 7 43 10 15 4
25 11 22 16 -3 5 8 16 24 25 17 8 37 28 45 43 9 15 15 21 16 14 0 -9 10 -6 32
10 l33 23 -23 -33 c-23 -32 -18 -44 7 -20 11 11 12 10 6 -1 -5 -9 -3 -12 6 -9
8 3 13 10 12 16 -3 14 51 25 77 17 13 -4 19 -12 16 -21 -4 -11 9 -14 69 -14
40 0 76 4 79 8 3 5 19 9 36 10 16 0 34 3 40 7 17 10 11 25 -9 25 -11 0 -22 4
-25 9 -8 12 -46 21 -46 11 0 -4 11 -11 25 -14 14 -4 23 -11 20 -16 -4 -6 -22
-2 -45 10 -22 11 -56 19 -77 19 -27 -1 -31 -3 -13 -6 55 -9 100 -24 100 -33 0
-5 -14 -5 -32 1 -18 5 -51 8 -74 7 -30 -1 -47 4 -64 19 l-22 22 53 15 c92 28
192 15 228 -28 7 -9 18 -13 24 -9 6 3 7 1 3 -6 -4 -6 -4 -20 -1 -32 5 -15 10
-17 20 -9 11 9 13 6 9 -12 -4 -21 -4 -21 5 -3 5 12 5 24 0 30 -12 13 -11 28 1
20 6 -4 17 -1 25 5 16 14 122 40 130 32 3 -3 -5 -16 -17 -29 -18 -19 -19 -23
-5 -23 9 0 34 9 56 20 21 12 56 24 77 27 l38 6 -22 -23 c-12 -13 -22 -27 -22
-32 0 -14 26 -9 51 10 32 24 75 42 100 42 20 0 20 0 -1 -22 -11 -12 -20 -26
-20 -31 0 -10 39 1 60 17 21 17 68 36 87 36 14 0 14 -2 -1 -25 -26 -40 -15
-49 20 -17 20 19 76 42 101 42 11 0 9 -7 -6 -27 -12 -14 -20 -28 -18 -30 5 -4
35 9 87 37 46 25 72 26 63 3 -4 -10 -11 -21 -17 -25 -6 -4 -7 -10 -4 -14 4 -4
20 2 35 12 35 24 81 44 100 44 11 0 9 -7 -7 -30 -25 -35 -8 -42 31 -11 25 19
97 46 104 39 2 -2 -2 -16 -10 -31 -16 -31 -8 -34 26 -9 29 22 75 42 95 42 12
0 12 -4 -2 -25 -9 -14 -14 -28 -12 -31 3 -3 33 9 66 26 82 41 100 39 66 -8
-13 -19 -13 -22 -1 -22 8 0 20 7 27 16 15 17 74 44 96 44 12 0 11 -5 -2 -25
-28 -43 -11 -42 76 5 19 11 43 19 53 20 17 0 17 -2 -3 -30 -16 -22 -18 -30 -7
-30 8 0 22 9 32 20 18 19 72 40 108 40 21 0 23 -28 2 -36 -8 -4 -15 -10 -15
-15 0 -11 45 -2 75 15 27 14 105 35 130 35 14 0 16 -2 5 -6 -21 -8 -50 -34
-50 -46 0 -5 6 -7 14 -4 8 3 17 1 19 -6 3 -7 18 3 38 24 39 41 92 62 159 62
58 0 165 -23 154 -33 -5 -4 -42 -12 -82 -19 -67 -10 -132 -34 -132 -47 0 -2
44 -4 97 -3 53 1 90 5 80 8 -11 4 -13 11 -8 20 6 9 23 12 55 10 37 -3 45 -1
41 10 -4 11 -1 11 13 -2 24 -22 33 -22 25 0 -4 14 -1 13 18 -5 45 -43 113 -91
119 -84 3 4 16 6 30 5 112 -11 158 1 199 53 12 15 21 24 21 20 0 -14 -29 -63
-44 -75 -9 -8 -16 -17 -16 -21 0 -12 74 -4 78 8 2 7 15 5 38 -4 40 -17 70 -4
59 24 -4 12 -3 13 10 2 10 -8 12 -17 6 -24 -6 -6 -6 -18 -2 -25 7 -11 16 -11
45 -1 19 6 39 16 42 22 4 6 3 8 -2 5 -6 -3 -16 -1 -24 4 -11 7 -9 8 8 6 13 -2
28 -10 33 -18 7 -11 9 -11 9 -1 0 7 5 10 10 7 6 -3 10 -1 10 5 0 6 -10 15 -22
20 l-23 9 21 6 c18 5 22 15 22 51 1 24 -3 44 -8 44 -6 0 -10 -11 -10 -24 0
-25 -43 -62 -60 -51 -16 10 -12 35 5 29 8 -4 15 -2 15 2 0 5 14 23 30 41 36
39 37 44 6 70 -44 39 -59 43 -94 26 -21 -10 -41 -13 -59 -8 -27 8 -27 8 11 15
49 9 73 37 82 97 6 42 4 49 -20 70 -15 13 -22 23 -17 23 19 0 12 22 -9 27 -11
3 -20 9 -20 14 0 24 47 -6 66 -42 11 -22 19 -28 27 -21 8 7 18 6 30 -3 17 -12
17 -14 -8 -40 -24 -27 -35 -63 -15 -50 6 3 10 -3 10 -13 0 -20 39 -76 40 -56
0 5 -5 15 -12 22 -9 9 -9 12 0 12 7 0 12 7 12 16 0 14 -3 14 -15 4 -8 -7 -15
-8 -15 -2 0 5 7 15 15 22 10 9 15 31 15 72 0 51 -3 61 -20 65 -11 3 -21 10
-21 17 -3 28 4 53 22 72 14 15 19 35 19 76 0 52 -17 88 -33 71 -4 -3 -7 0 -8
8 -3 38 5 65 22 77 36 25 20 162 -20 162 -16 0 -3 51 18 70 12 11 13 11 3 1
-16 -20 -15 -46 3 -61 12 -10 15 -10 15 4 0 9 -6 16 -12 16 -10 0 -10 2 -2 8
7 4 12 39 13 85 1 72 -1 80 -26 103 -14 13 -23 27 -20 31 4 3 15 -1 26 -11 18
-16 18 -15 18 23 0 38 -1 40 -21 29 -20 -10 -20 -10 2 14 17 19 22 36 22 81 0
31 -4 57 -10 57 -5 0 -10 7 -10 15 0 9 -7 18 -15 21 -19 8 -10 49 16 75 36 36
18 168 -19 145 -7 -4 -9 24 -3 43 0 2 10 -4 21 -14 18 -16 20 -16 20 -2 0 10
-4 17 -10 17 -5 0 -10 5 -10 11 0 5 5 7 10 4 6 -4 10 28 10 88 0 81 -3 96 -20
112 -11 10 -20 23 -20 28 0 6 9 2 20 -8 16 -14 20 -15 20 -4 0 8 -5 20 -12 27
-9 9 -9 12 0 12 7 0 12 8 12 18 -1 14 -3 14 -19 -6 -13 -15 -21 -18 -24 -10
-2 7 7 23 20 35 21 20 23 31 23 107 0 58 -4 86 -12 89 -10 4 -10 6 0 6 6 1 12
8 12 18 0 14 -2 14 -20 -2 -11 -10 -21 -16 -21 -14 -8 24 -4 49 6 45 23 -8 35
17 35 71 0 38 -5 58 -19 72 -26 26 -35 67 -16 75 8 3 15 12 15 21 0 8 5 15 10
15 6 0 10 26 10 58 0 46 -4 63 -20 77 -11 10 -20 25 -20 33 0 9 6 7 19 -9 l18
-23 0 42 c0 41 0 42 -18 26 -11 -10 -22 -14 -26 -11 -3 4 6 18 20 31 22 21 27
34 27 74 0 33 -6 57 -18 73 -11 13 -22 36 -25 50 -6 21 -2 30 18 43 22 14 25
24 25 73 0 42 -5 62 -19 77 -18 20 -25 43 -22 75 0 8 4 11 8 8 3 -4 12 -2 20
4 21 18 17 128 -6 153 -18 19 -25 44 -22 72 0 7 10 14 21 17 17 4 20 14 20 65
0 41 -5 63 -15 72 -8 7 -15 17 -15 22 0 6 7 5 15 -2 12 -10 15 -10 15 4 0 9
-5 16 -12 16 -9 0 -9 3 0 12 7 7 12 17 12 22 -1 20 -40 -36 -40 -56 0 -10 -4
-16 -10 -13 -20 13 -9 -23 15 -50 25 -26 25 -28 8 -41 -23 -17 -30 -17 -36 -1
-2 6 -11 -2 -20 -20 -20 -38 -67 -69 -67 -44 0 5 9 11 20 14 21 5 28 27 9 27
-5 0 2 10 17 23 24 21 26 28 20 70 -9 60 -33 88 -82 97 -38 7 -38 7 -11 15 18
5 38 2 59 -8 35 -17 50 -13 94 26 31 26 30 31 -6 70 -16 18 -30 36 -30 41 0 4
-7 6 -15 2 -17 -6 -21 19 -5 29 17 11 60 -26 60 -51 0 -13 4 -24 10 -24 5 0 9
20 8 44 0 36 -4 46 -22 51 l-21 6 23 9 c12 5 22 14 22 20 0 6 -5 8 -10 5 -5
-3 -10 0 -10 7 0 10 -2 10 -9 -1 -5 -8 -20 -16 -32 -18 -23 -3 -23 -3 -4 11
12 9 15 15 7 16 -7 0 -11 4 -7 9 3 5 0 13 -6 17 -8 5 -9 3 -4 -6 6 -10 2 -11
-20 -6 -31 8 -51 -10 -34 -30 6 -8 4 -16 -8 -25 -14 -12 -16 -12 -8 0 5 9 2
18 -10 27 -15 11 -23 11 -51 -1 -22 -9 -34 -10 -36 -3 -4 12 -78 20 -78 8 0
-4 7 -13 16 -21 15 -12 44 -61 44 -75 0 -4 -9 5 -21 20 -32 41 -76 59 -144 59
-34 0 -67 -3 -73 -7 -6 -3 -12 -2 -14 4 -3 9 -70 -37 -117 -82 -19 -18 -22
-19 -18 -5 8 22 -1 22 -25 0 -14 -13 -18 -13 -13 -2 4 12 -3 14 -35 11 -46 -5
-87 17 -53 29 10 3 -38 6 -107 7 -69 0 -130 -4 -137 -10 -16 -13 -6 -36 21
-49 19 -9 19 -9 4 4 -19 15 -25 32 -7 22 5 -4 20 -8 32 -10 12 -1 34 -6 50
-10 15 -4 27 -4 27 -1 0 9 -62 31 -75 27 -5 -1 -5 3 1 9 9 9 19 8 42 -4 16 -8
63 -21 104 -27 40 -7 77 -15 82 -19 12 -11 -99 -34 -160 -33 -28 0 -71 10 -97
21 -25 11 -48 17 -52 14 -4 -4 -5 -2 -4 3 2 6 -2 20 -9 33 -10 17 -19 21 -35
16 -12 -3 -24 -8 -26 -10 -7 -6 22 -36 44 -45 14 -7 7 -8 -25 -4 -24 3 -62 14
-85 24 -54 24 -95 33 -95 22 0 -5 7 -11 15 -15 21 -8 19 -36 -2 -36 -36 0 -90
21 -108 40 -29 32 -51 26 -25 -7 36 -46 -2 -41 -103 14 -36 19 -44 11 -23 -22
13 -20 14 -25 2 -25 -22 0 -81 27 -96 44 -7 9 -18 16 -26 16 -10 0 -10 -5 1
-27 8 -15 12 -29 10 -31 -6 -6 -66 18 -85 34 -8 7 -28 16 -44 20 l-30 7 23
-31 c18 -26 19 -32 7 -32 -20 0 -65 20 -95 42 -34 25 -42 22 -26 -9 8 -15 13
-29 11 -31 -6 -5 -86 20 -86 28 0 8 -46 30 -61 30 -6 0 -1 -13 11 -30 14 -19
17 -30 9 -30 -24 0 -84 25 -101 43 -27 26 -39 21 -22 -10 24 -48 2 -44 -114
18 -12 7 -25 9 -30 4 -4 -4 -1 -10 6 -12 6 -3 12 -11 12 -18 0 -7 6 -16 13
-18 6 -3 2 -6 -10 -6 -27 -1 -72 18 -95 42 -17 16 -38 23 -38 12 0 -3 7 -17
16 -30 15 -23 15 -25 1 -25 -19 0 -66 19 -87 36 -21 16 -60 27 -60 17 0 -5 9
-19 20 -31 21 -22 21 -22 1 -22 -25 0 -68 18 -100 42 -25 19 -51 24 -51 10 0
-5 10 -19 22 -32 l22 -23 -38 6 c-21 3 -56 15 -77 27 -22 11 -47 20 -56 20
-14 0 -13 -4 5 -23 12 -13 20 -26 17 -29 -8 -8 -114 18 -130 32 -8 6 -19 9
-25 5 -12 -8 -13 7 -1 21 5 5 5 17 0 29 -9 18 -9 18 -5 -2 2 -13 0 -23 -5 -23
-5 0 -9 6 -9 13 0 6 -5 4 -11 -6 -6 -10 -8 -25 -5 -33 3 -8 2 -13 -3 -10 -5 3
-15 -1 -22 -10 -36 -43 -136 -56 -228 -28 l-53 15 22 22 c17 15 34 20 64 19
23 -1 56 2 74 7 18 6 32 6 32 1 0 -9 -45 -24 -100 -33 -18 -3 -14 -5 13 -6 21
0 55 8 77 19 23 12 41 16 45 10 3 -5 -6 -12 -20 -16 -14 -3 -25 -10 -25 -14 0
-10 38 -1 46 11 3 5 14 9 25 9 20 0 26 15 9 25 -6 4 -24 7 -40 7 -17 1 -33 5
-36 10 -3 4 -39 8 -80 8 -53 0 -73 -3 -68 -11 17 -28 -43 -37 -91 -13 -16 8
-22 12 -12 9 10 -3 16 -1 13 4 -3 4 -19 8 -37 9 -25 1 -28 -2 -17 -11 8 -7 21
-21 28 -32 13 -17 12 -17 -17 3 -17 12 -35 22 -40 22 -4 0 -14 9 -21 20 -7 12
-24 25 -38 30 -14 6 -23 14 -20 19 3 5 -13 13 -37 19 l-42 11 43 -37 c23 -20
42 -41 42 -45 0 -5 -14 5 -31 22 -35 35 -62 42 -33 9 l19 -22 -29 22 c-37 28
-98 29 -151 2 -49 -25 -48 -25 -31 8 l14 27 -44 1 c-40 1 -56 -7 -36 -19 4 -2
0 -1 -8 1 -21 8 -64 6 -86 -2 -16 -6 -16 -8 -4 -16 8 -6 10 -10 4 -10 -23 0
-23 14 -2 37 20 21 20 23 4 17 -16 -6 -18 -4 -13 9 4 11 1 17 -9 17 -8 0 -12
-4 -9 -10 3 -5 -3 -10 -14 -10 -23 0 -28 15 -8 23 7 3 5 6 -6 6 -10 1 -20 -6
-24 -15z m157 -124 c8 -5 12 -10 10 -12 -3 -2 -18 -14 -34 -28 -16 -14 -26
-19 -21 -11 6 10 2 12 -14 6 -23 -7 -27 5 -11 36 11 20 45 25 70 9z m150 -4
c0 -6 -5 -18 -10 -26 -12 -19 -36 1 -27 23 6 16 37 19 37 3z m2807 8 c-3 -3
-12 -4 -19 -1 -8 3 -5 6 6 6 11 1 17 -2 13 -5z m28 -4 c3 -5 1 -10 -4 -10 -6
0 -11 5 -11 10 0 6 2 10 4 10 3 0 8 -4 11 -10z m661 -13 c7 -7 9 -20 4 -32 -5
-11 -9 -14 -9 -7 -1 6 -9 12 -19 12 -22 0 -42 19 -42 38 0 17 47 8 66 -11z
m-182 -3 c25 -10 19 -22 -9 -16 -14 2 -25 8 -25 13 0 10 12 11 34 3z m-3254
-24 c0 -5 -2 -10 -4 -10 -3 0 -8 5 -11 10 -3 6 -1 10 4 10 6 0 11 -4 11 -10z
m-191 -3 c-2 -1 -15 -11 -29 -22 l-25 -20 19 23 c11 12 24 22 29 22 6 0 8 -1
6 -3z m3572 -14 c13 -16 12 -17 -3 -4 -17 13 -22 21 -14 21 2 0 10 -8 17 -17z
m-3083 -18 c-3 -3 -9 2 -12 12 -6 14 -5 15 5 6 7 -7 10 -15 7 -18z m-462 6
c-6 -8 18 -23 39 -25 5 -1 11 -9 13 -19 5 -24 -24 -32 -43 -13 -9 9 -21 16
-26 16 -13 0 -11 24 3 38 14 14 22 16 14 3z m-186 -16 c-7 -8 -17 -12 -22 -9
-6 4 -5 10 3 15 22 14 33 10 19 -6z m370 5 c0 -5 -2 -10 -4 -10 -3 0 -8 5 -11
10 -3 6 -1 10 4 10 6 0 11 -4 11 -10z m3120 0 c0 -5 -5 -10 -11 -10 -5 0 -7 5
-4 10 3 6 8 10 11 10 2 0 4 -4 4 -10z m380 -4 c-7 -7 -13 -7 -20 0 -6 6 -3 10
10 10 13 0 16 -4 10 -10z m-3841 -17 c-22 -14 -33 -10 -19 6 7 8 17 12 22 9 6
-4 5 -10 -3 -15z m3671 -5 c0 -29 -43 -38 -59 -12 -8 12 -8 18 0 18 5 0 8 4 4
10 -3 5 7 8 25 7 23 -2 30 -7 30 -23z m136 11 c14 -13 13 -15 -4 -15 -11 0
-22 7 -26 15 -3 8 -1 15 5 15 6 0 17 -7 25 -15z m-299 -11 c-3 -3 -12 -4 -19
-1 -8 3 -5 6 6 6 11 1 17 -2 13 -5z m-2672 -34 c-27 -12 -35 -12 -35 0 0 6 12
10 28 9 24 0 25 -1 7 -9z m2170 0 c3 -5 -1 -10 -9 -10 -9 0 -16 5 -16 10 0 6
4 10 9 10 6 0 13 -4 16 -10z m-2985 -50 c-11 -16 -27 -46 -35 -67 -13 -36 -14
-36 -14 -10 -1 30 12 61 37 90 25 29 35 19 12 -13z m3730 -11 c0 -6 -4 -7 -10
-4 -5 3 -10 1 -10 -5 0 -6 -5 -8 -10 -5 -6 4 -8 11 -5 16 3 5 -1 6 -9 3 -11
-4 -16 0 -16 14 0 19 2 20 30 6 17 -9 30 -20 30 -25z m-3650 18 c0 -16 -38
-40 -50 -32 -16 10 8 45 30 45 11 0 20 -6 20 -13z m3690 -26 c7 -17 10 -35 9
-40 -2 -6 -12 8 -21 29 -9 22 -13 40 -8 40 4 0 13 -13 20 -29z m-3225 -11 c-3
-5 5 -11 17 -13 20 -4 20 -4 -4 -6 -15 0 -30 4 -33 9 -8 13 4 32 16 24 5 -3 7
-9 4 -14z m75 16 c0 -2 -8 -10 -17 -17 -16 -13 -17 -12 -4 4 13 16 21 21 21
13z m2588 -19 c8 14 14 15 23 6 6 -6 8 -16 5 -22 -12 -19 -42 -12 -67 17 l-24
27 27 -23 c25 -23 27 -23 36 -5z m-2947 -4 c13 -16 12 -17 -3 -4 -10 7 -18 15
-18 17 0 8 8 3 21 -13z m252 -32 c8 -9 23 -11 52 -6 22 3 51 8 65 11 54 8 85
17 90 25 3 5 22 0 41 -10 19 -10 64 -21 100 -24 35 -3 81 -9 102 -13 27 -5 42
-2 55 8 9 9 53 21 97 28 91 14 329 20 405 10 27 -4 50 -3 50 0 0 9 444 5 458
-4 7 -4 12 -3 12 2 0 5 104 7 238 5 130 -2 252 -3 270 -3 17 0 32 -4 32 -10 0
-5 5 -10 11 -10 5 0 7 5 4 10 -6 10 8 9 57 -5 16 -4 36 -4 45 0 34 15 52 15
47 1 -8 -22 25 -40 73 -38 24 1 42 -2 39 -7 -3 -4 18 -8 45 -9 35 -1 49 3 46
11 -3 7 -10 11 -16 9 -7 -1 -10 2 -6 8 9 15 42 12 48 -4 4 -11 14 -12 43 -6
20 5 41 13 46 18 7 7 21 5 42 -3 20 -9 37 -10 47 -4 7 5 28 6 45 3 21 -4 36
-1 47 10 15 15 17 15 26 -1 7 -13 4 -24 -10 -41 -18 -23 -20 -23 -261 -23
-134 0 -270 2 -303 5 -33 3 -65 0 -72 -6 -7 -5 -18 -6 -25 -1 -19 12 -162 11
-170 -2 -5 -6 -8 -6 -8 3 0 15 -37 16 -42 0 -3 -7 -9 -8 -19 -3 -21 14 -39 15
-39 2 0 -8 -3 -8 -8 1 -9 13 -105 12 -118 -1 -4 -4 -13 -2 -20 4 -8 6 -21 8
-31 4 -10 -5 -22 -7 -28 -5 -23 7 -216 6 -221 -1 -3 -5 -15 -5 -27 0 -26 9
-203 8 -212 -1 -4 -4 -18 -3 -32 3 -32 12 -36 11 -27 -3 5 -7 3 -8 -7 -2 -19
12 -129 11 -129 -1 0 -6 -3 -5 -8 1 -8 13 -42 14 -42 2 0 -5 -9 -7 -19 -3 -43
13 -65 14 -73 2 -6 -9 -10 -8 -18 3 -7 11 -10 11 -10 2 0 -8 -5 -10 -12 -6
-17 11 -48 12 -54 3 -2 -4 -93 -7 -202 -6 -195 1 -196 1 -62 7 l135 6 -185 0
c-107 1 -164 -2 -135 -6 34 -5 3 -7 -95 -8 -89 0 -137 3 -125 8 16 7 17 9 3 9
-9 1 -20 -4 -23 -9 -4 -6 -15 0 -27 15 -17 22 -27 26 -60 23 -34 -3 -42 0 -49
20 -7 17 -6 21 4 15 6 -4 17 -8 22 -8 18 -2 65 25 66 38 1 6 4 3 6 -8 3 -11
10 -26 16 -34z m391 36 c16 -12 17 -15 3 -20 -8 -3 -21 1 -27 8 -7 8 -17 12
-23 8 -6 -3 -7 -1 -3 5 9 16 28 15 50 -1z m2020 1 c-3 -5 -10 -6 -15 -3 -5 4
-12 -1 -15 -9 -3 -9 -13 -16 -22 -16 -13 0 -13 3 2 19 17 19 60 26 50 9z m126
-32 c0 -2 -9 -6 -20 -9 -11 -3 -18 -1 -14 4 5 9 34 13 34 5z m454 -35 c-3 -3
-15 6 -27 18 l-22 24 27 -19 c14 -10 24 -21 22 -23z m-3217 20 c16 13 17 12 5
-3 -15 -19 -69 -20 -69 -1 0 8 7 8 23 1 18 -8 28 -7 41 3z m93 -12 c0 -14 -5
-19 -14 -16 -8 3 -16 1 -18 -4 -2 -5 -12 -2 -23 6 -20 16 -20 16 2 12 12 -3
27 1 34 9 16 19 19 18 19 -7z m2990 11 c-8 -5 -19 -10 -25 -10 -5 0 -3 5 5 10
8 5 20 10 25 10 6 0 3 -5 -5 -10z m340 -4 c0 -3 -4 -8 -10 -11 -5 -3 -10 -1
-10 4 0 6 5 11 10 11 6 0 10 -2 10 -4z m-3677 -20 c14 2 16 -2 11 -19 -9 -30
-24 -45 -24 -24 0 9 -4 17 -10 17 -5 0 -10 10 -10 23 0 13 3 17 8 11 4 -6 15
-10 25 -8z m3278 5 c-11 -7 -9 -10 8 -16 11 -3 34 -7 51 -7 23 -1 28 -4 19
-14 -16 -20 -2 -36 22 -24 12 7 19 7 19 1 0 -17 -41 -34 -53 -22 -7 7 -20 6
-43 -4 -18 -7 -34 -12 -36 -10 -6 6 -84 7 -1465 6 -1064 -1 -1352 -4 -1356
-14 -3 -9 -11 -8 -33 4 -22 12 -34 13 -52 5 -12 -6 -20 -17 -17 -23 2 -8 -4
-13 -18 -14 -12 0 -17 -3 -11 -5 11 -5 7 -64 -5 -64 -10 0 -31 22 -31 32 0 4
6 7 13 6 8 -2 11 7 9 25 -2 20 2 27 15 28 15 0 15 2 3 7 -22 10 -20 67 2 66
10 -1 18 2 18 6 0 4 16 6 35 4 19 -1 33 1 31 4 -2 4 7 8 20 8 40 3 21 -21 -19
-24 -20 -2 -37 -7 -37 -11 0 -5 11 -6 25 -3 17 3 27 -1 31 -12 5 -14 9 -14 22
-4 12 10 297 14 1411 16 1312 2 1397 2 1408 -15 12 -16 13 -16 13 1 0 15 6 17
30 14 19 -3 30 0 30 7 0 8 -14 12 -37 11 -32 -1 -38 2 -41 22 -3 16 2 22 15
22 14 0 15 -2 4 -9z m244 -11 c10 -11 16 -20 13 -20 -3 0 -13 9 -23 20 -10 11
-16 20 -13 20 3 0 13 -9 23 -20z m-3451 -6 c3 -8 2 -12 -4 -9 -6 3 -10 10 -10
16 0 14 7 11 14 -7z m3608 -42 c-5 -23 -6 -24 -12 -7 -9 24 0 62 10 45 4 -6 5
-23 2 -38z m-3400 -1 c-4 -10 -7 -11 -10 -3 -2 7 -11 12 -20 12 -13 0 -12 3 4
14 21 16 36 3 26 -23z m3116 25 c-2 -1 -12 -8 -22 -16 -18 -14 -18 -14 -6 7 8
12 18 19 23 16 4 -3 7 -6 5 -7z m62 -26 c0 -19 -28 -10 -33 10 -4 17 -2 18 14
9 10 -5 19 -14 19 -19z m-3397 7 c-2 -4 -3 -12 -3 -18 0 -8 -5 -8 -15 1 -20
17 -19 29 3 26 9 -2 16 -6 15 -9z m3473 -12 c-3 -8 -1 -15 3 -15 5 0 7 -9 4
-20 -3 -11 -10 -17 -16 -13 -5 3 -7 1 -4 -5 13 -20 -4 -39 -33 -38 -35 1 -58
39 -39 62 6 8 16 14 21 14 5 0 16 7 24 15 9 8 22 15 31 15 9 0 13 -6 9 -15z
m-3507 -28 c0 -21 -1 -21 -9 -2 -12 28 -12 37 0 30 6 -3 10 -16 9 -28z m235
-40 c-4 -26 -1 -45 10 -62 14 -22 16 -156 16 -1375 0 -1230 -1 -1353 -16
-1376 -12 -17 -15 -36 -10 -62 4 -30 2 -40 -14 -49 -16 -10 -19 -10 -19 5 0
38 -9 103 -15 109 -3 3 -1 11 4 18 7 8 4 11 -8 11 -9 -1 -17 4 -17 9 0 6 3 9
8 7 4 -1 7 7 7 18 0 23 -4 24 -30 10 -13 -7 -21 -5 -31 7 -12 15 -12 16 5 9
19 -7 19 -6 1 14 -10 11 -13 20 -7 20 6 0 14 -5 17 -10 4 -6 10 -8 15 -5 5 3
21 -11 36 -30 15 -20 29 -34 31 -31 6 6 -23 60 -40 75 -13 10 -12 15 9 38 13
14 22 29 19 32 -2 4 0 13 5 21 5 8 5 21 0 30 -6 12 -3 22 11 34 16 13 18 20 9
31 -8 10 -8 15 1 21 8 5 9 3 4 -6 -5 -9 -4 -11 4 -6 9 6 9 11 1 21 -8 9 -8 15
0 20 5 3 10 11 10 17 0 7 -5 6 -15 -2 -8 -6 -19 -9 -24 -6 -5 4 -17 -4 -25
-16 -9 -12 -19 -19 -22 -15 -11 10 28 48 43 43 7 -3 12 0 10 7 -1 7 4 11 11 9
6 -1 12 5 12 13 0 8 -5 15 -11 15 -7 0 -5 9 5 25 13 20 14 29 4 50 -15 33 -24
32 -32 -5 -3 -20 -14 -34 -30 -40 -13 -5 -26 -17 -28 -27 -2 -10 -4 8 -4 39 0
39 4 54 11 48 7 -6 14 3 21 26 9 29 8 41 -7 71 -11 21 -16 46 -13 60 4 13 2
23 -4 23 -13 0 -27 -81 -19 -110 3 -11 1 -20 -5 -20 -6 0 -8 -15 -6 -33 3 -29
1 -33 -14 -29 -10 2 -18 -1 -18 -7 0 -6 7 -11 15 -11 8 0 15 -7 15 -15 0 -20
-22 -15 -38 10 -12 19 -12 18 -6 -5 4 -14 3 -21 -2 -17 -13 12 -11 98 1 93 7
-2 10 275 10 819 0 544 -3 821 -10 819 -12 -5 -14 81 -1 93 5 4 6 -3 2 -17 -6
-25 -6 -25 5 -2 14 25 39 30 39 7 0 -8 -7 -15 -15 -15 -8 0 -15 -5 -15 -11 0
-6 8 -9 18 -7 15 4 17 0 14 -29 -2 -18 0 -33 6 -33 6 0 8 -9 5 -20 -8 -29 6
-110 19 -110 6 0 8 10 4 22 -3 14 3 41 16 66 15 32 18 46 9 55 -6 6 -12 29
-12 51 -1 28 -3 33 -6 16 -3 -14 -9 -29 -15 -35 -7 -7 -9 -2 -4 15 3 14 6 32
6 41 0 12 7 15 25 11 30 -5 33 8 5 26 -11 7 -20 17 -20 24 0 14 38 -19 52 -46
8 -14 7 -17 -3 -11 -9 6 -10 2 -6 -16 4 -13 7 -30 7 -36 0 -25 18 -13 29 19 9
26 8 35 -5 50 -11 12 -13 18 -5 18 21 0 8 33 -14 36 -21 3 -59 43 -50 52 3 3
12 -4 21 -16 8 -12 20 -20 25 -16 5 3 16 0 24 -6 10 -8 15 -9 15 -2 0 6 -4 14
-10 17 -5 3 -10 13 -10 21 0 9 5 12 12 8 7 -4 8 -3 4 5 -4 6 -12 9 -17 6 -5
-4 -9 -2 -9 4 0 5 5 13 12 17 7 5 5 11 -7 21 -22 15 -39 17 -30 4 3 -5 0 -13
-7 -17 -7 -4 -10 -4 -6 1 9 10 -11 37 -22 30 -4 -3 -13 2 -20 10 -10 12 -10
15 3 15 8 0 20 -6 26 -14 7 -8 20 -12 30 -9 16 4 18 10 11 34 -5 17 -5 29 1
29 5 0 0 9 -11 20 -20 20 -19 47 1 35 5 -4 9 -1 9 4 0 16 -16 13 -30 -4 -7 -8
-16 -13 -20 -10 -4 3 4 18 20 35 15 16 30 40 33 52 5 18 -1 14 -28 -17 -19
-22 -34 -36 -35 -31 0 5 -7 3 -15 -4 -9 -7 -18 -10 -22 -6 -4 3 2 13 13 21 19
15 19 15 -1 9 -15 -4 -16 -3 -6 4 8 6 10 15 5 23 -6 11 -5 12 7 3 30 -23 49
-24 49 -4 0 11 -3 19 -7 18 -5 -2 -9 2 -10 7 -1 6 6 10 17 9 10 0 17 3 14 8
-8 12 -38 10 -54 -4 -8 -7 -6 -3 4 9 10 12 24 19 32 16 9 -3 14 2 15 13 1 11
3 35 6 54 2 19 4 43 4 52 0 15 3 15 20 5 16 -10 19 -19 13 -50z m3506 49 c0
-2 -8 -10 -17 -17 -16 -13 -17 -12 -4 4 13 16 21 21 21 13z m-425 -44 c-3 -8
-5 -18 -5 -23 0 -5 -4 -9 -9 -9 -4 0 -6 11 -3 25 2 14 1 25 -4 24 -18 -3 -25
1 -19 11 9 14 46 -12 40 -28z m40 28 c-17 -7 -17 -9 -2 -9 9 -1 17 -5 17 -11
0 -12 -10 -13 -29 -1 -17 11 -6 31 17 30 14 0 13 -2 -3 -9z m-2980 -10 c3 -5
-3 -10 -14 -10 -12 0 -21 -5 -21 -12 0 -6 -3 -8 -6 -5 -8 7 14 37 27 37 4 0
11 -4 14 -10z m155 1 c0 -5 26 -11 59 -13 44 -2 57 0 54 10 -3 6 0 12 6 12 6
0 11 -5 11 -10 0 -7 25 -10 68 -8 39 2 68 -1 70 -7 2 -10 -283 -17 -300 -8 -9
4 13 32 25 33 4 0 7 -4 7 -9z m342 -7 c24 0 35 3 31 10 -4 7 -1 6 8 -1 16 -13
171 -15 163 -1 -3 4 0 8 5 8 6 0 11 -3 11 -8 0 -4 18 -7 39 -7 22 0 37 3 35 7
-3 5 0 8 5 8 6 0 11 -3 11 -7 0 -5 360 -8 801 -8 440 0 803 -3 805 -7 3 -5
-340 -8 -763 -8 -422 0 -849 -1 -948 -1 -258 -2 -255 -2 -255 19 0 9 4 13 8 7
4 -5 24 -10 44 -11z m2220 0 c48 0 85 4 82 8 -9 15 43 8 56 -7 7 -8 16 -12 21
-9 18 11 21 -27 4 -46 -10 -11 -16 -22 -13 -25 3 -3 11 1 18 10 20 24 30 18
32 -22 l1 -38 6 35 c3 19 8 -406 11 -945 l5 -980 3 982 c1 641 5 984 12 988 6
3 10 0 10 -7 1 -7 1 -119 2 -248 l2 -235 6 235 c3 129 7 228 8 220 4 -20 4
-2732 0 -2745 -2 -5 -5 508 -8 1140 l-5 1150 -3 -1163 c-1 -772 -5 -1161 -12
-1157 -6 4 -11 159 -12 423 l-3 417 -5 -415 c-3 -228 -8 -401 -11 -385 l-6 30
-2 -32 c0 -18 -5 -33 -9 -33 -15 0 -30 22 -25 36 3 8 -1 14 -11 14 -22 0 -20
-12 5 -44 20 -25 20 -64 0 -52 -5 3 -14 -1 -21 -9 -13 -15 -60 -21 -60 -7 0
11 -164 9 -172 -3 -5 -7 -8 -6 -8 2 0 8 -22 10 -72 8 -39 -1 -83 1 -97 5 -15
5 55 9 164 9 105 1 197 6 205 11 8 5 11 10 5 11 -5 1 -551 3 -1212 4 -662 1
-1206 5 -1210 8 -3 4 -12 2 -18 -3 -9 -7 -21 -7 -39 0 -15 5 -35 7 -44 2 -16
-7 -75 -7 -169 1 -169 13 113 17 1310 17 892 0 1367 -4 1367 -10 0 -6 12 -10
26 -10 14 0 23 -4 20 -8 -2 -4 5 -9 17 -9 18 -2 17 0 -8 17 -26 17 -43 50 -27
50 6 0 6 232 0 755 -2 105 -5 -21 -8 -280 -3 -259 -5 138 -5 880 0 1192 0
1247 5 470 5 -845 5 -856 7 -280 2 330 4 726 5 880 l3 280 22 0 c13 0 23 5 23
10 -1 6 -17 9 -38 7 -24 -1 -32 1 -24 6 8 5 13 13 12 17 -1 4 11 16 26 26 25
16 26 18 7 16 -12 0 -19 -5 -17 -9 9 -14 -17 -9 -32 7 -13 12 -51 15 -207 16
-110 0 -181 4 -166 9 14 4 58 6 97 5 50 -2 72 0 72 8 0 8 3 8 8 2 4 -6 46 -11
94 -11z m-2612 1 c0 -7 -43 -45 -52 -45 -4 0 -7 4 -5 9 2 9 -3 11 -24 11 -8 0
-8 -5 1 -15 7 -8 18 -15 25 -15 7 0 15 -10 18 -21 4 -15 3 -19 -4 -12 -11 11
-59 -5 -59 -19 0 -12 28 -10 35 2 4 6 13 7 23 1 16 -8 17 -101 16 -1353 -1
-738 -4 -1355 -9 -1370 -4 -16 -13 -28 -20 -28 -7 0 -18 -6 -24 -14 -9 -10 -8
-15 3 -19 9 -4 18 -1 22 5 5 7 2 8 -7 3 -8 -5 -11 -4 -6 0 4 5 16 9 27 10 11
1 18 0 15 -3 -2 -2 3 -12 12 -21 16 -15 15 -16 -6 -19 -20 -3 -91 23 -91 33 0
2 10 13 22 25 12 11 19 23 15 26 -3 3 -17 -6 -31 -21 -25 -27 -27 -27 -45 -11
-15 13 -20 14 -24 4 -3 -7 -7 25 -8 72 -2 72 -3 76 -6 27 -2 -32 -8 -55 -13
-52 -13 8 -13 2702 0 2710 5 3 11 -22 13 -57 3 -53 3 -50 5 26 1 49 5 86 9 82
4 -4 6 -212 4 -464 -1 -251 0 -455 2 -452 3 3 7 209 11 459 4 294 9 458 16
465 7 7 18 2 35 -18 14 -16 28 -26 33 -22 4 4 -1 13 -10 20 -26 19 -25 35 2
50 24 13 80 21 80 11z m3256 -22 c-23 -46 -75 -113 -87 -113 -5 0 -8 4 -5 9 3
4 -11 8 -31 7 -24 -1 -38 4 -41 14 -4 13 -3 13 10 2 26 -21 64 -3 113 54 52
60 62 67 41 27z m-143 1 c9 -3 13 -13 10 -24 -3 -12 1 -19 14 -22 15 -3 15 -5
-4 -10 -19 -5 -23 -2 -23 16 0 12 -5 27 -12 34 -13 13 -8 15 15 6z m-226 -10
c-3 -3 -12 -4 -19 -1 -8 3 -5 6 6 6 11 1 17 -2 13 -5z m-2752 -15 c11 2 28 2
38 2 29 -2 22 -2 1293 1 979 2 1240 0 1237 -9 -4 -10 -300 -13 -1371 -13 -905
0 -1362 4 -1352 10 8 6 26 8 40 5 14 -3 32 -1 40 5 8 5 24 7 35 3 11 -4 29 -5
40 -4z m2775 -4 c0 -8 -9 -15 -21 -15 -11 0 -17 5 -14 10 4 6 11 8 16 5 5 -4
9 -1 9 4 0 6 2 11 5 11 3 0 5 -7 5 -15z m-3235 -24 c-6 -5 -25 10 -25 20 0 5
6 4 14 -3 8 -7 12 -15 11 -17z m3515 9 c-18 -12 -30 -13 -30 -2 0 4 10 9 22 9
18 2 20 0 8 -7z m94 -447 c5 -14 4 -23 -2 -23 -5 0 -25 -3 -43 -6 -29 -6 -32
-4 -21 7 7 8 18 14 24 14 6 0 13 6 16 13 2 7 -6 12 -22 12 -14 0 -26 -4 -26
-10 0 -5 -7 -10 -16 -10 -14 0 -15 -2 -3 -17 13 -15 12 -15 -7 -5 -46 25 -46
25 -58 242 -2 43 0 67 5 55 7 -18 8 -18 8 5 1 17 4 21 10 12 4 -7 9 -48 9 -89
1 -42 5 -80 11 -86 5 -5 7 -16 4 -25 -4 -10 -2 -13 5 -8 8 5 10 2 6 -8 -8 -21
-13 -20 -24 7 -7 19 -9 19 -9 3 -1 -25 49 -72 59 -56 4 7 13 9 19 6 6 -4 11
-2 11 3 0 6 -5 11 -11 11 -5 0 -7 5 -4 11 4 6 -1 16 -10 23 -20 14 -49 136
-36 149 10 10 25 -48 17 -62 -10 -15 15 -73 30 -67 8 3 11 0 8 -8 -3 -7 1 -18
8 -24 11 -8 13 24 11 176 -2 103 1 194 5 202 4 8 9 -84 13 -205 3 -121 9 -230
13 -242z m-3739 427 c-3 -5 -11 -10 -16 -10 -6 0 -7 5 -4 10 3 6 11 10 16 10
6 0 7 -4 4 -10z m3409 1 c-3 -3 -10 -6 -16 -6 -6 0 -14 -10 -19 -22 -5 -14 -5
-23 1 -23 6 0 10 -6 10 -12 0 -7 18 -26 39 -41 35 -26 38 -32 34 -65 -3 -21
-9 -39 -13 -42 -4 -3 -13 -16 -19 -28 -8 -15 -19 -22 -30 -19 -14 3 -19 -3
-21 -32 -4 -39 -3 -209 1 -228 4 -19 37 4 42 29 3 13 3 -2 0 -32 -3 -30 -7
-59 -11 -65 -3 -5 -2 -7 3 -3 11 10 36 -39 29 -57 -3 -7 -1 -22 4 -32 8 -14
13 -6 23 44 7 34 18 64 25 67 8 3 11 -2 9 -14 -2 -11 1 -22 6 -26 5 -3 9 -46
7 -98 -1 -50 2 -98 7 -105 5 -10 4 -12 -3 -7 -15 9 -15 1 -1 -26 7 -13 7 -18
1 -14 -11 7 -10 -39 1 -50 3 -3 1 -18 -3 -32 -12 -34 -8 -105 5 -114 6 -5 6
-8 -1 -8 -6 0 -10 -12 -8 -27 4 -40 6 -87 4 -93 -1 -3 -3 -60 -4 -127 0 -67
-4 -125 -8 -129 -11 -10 -10 -26 0 -20 5 3 7 -20 5 -50 -1 -30 1 -54 6 -54 4
0 5 -21 1 -47 -4 -27 -4 -56 1 -65 11 -21 11 -37 0 -20 -5 8 -7 -21 -6 -70 1
-47 5 -90 9 -96 3 -6 2 -13 -3 -16 -6 -4 -6 -18 -1 -36 5 -17 6 -28 2 -26 -4
2 -6 -52 -6 -120 1 -68 -1 -126 -5 -128 -9 -6 -33 9 -31 20 0 5 -4 31 -11 58
-9 39 -14 45 -21 32 -5 -10 -7 -24 -4 -33 4 -8 1 -22 -6 -31 -8 -9 -13 -41
-12 -81 1 -58 0 -62 -9 -31 l-9 35 -19 -24 c-29 -35 -24 -67 16 -102 19 -17
35 -38 35 -46 0 -12 -3 -13 -15 -3 -8 6 -19 9 -25 5 -13 -8 -13 8 1 22 8 8 5
14 -10 22 -20 11 -21 9 -21 -28 0 -22 4 -51 10 -65 5 -15 6 -28 0 -31 -16 -10
1 -33 21 -28 14 4 23 -3 34 -28 8 -19 15 -29 15 -24 1 6 5 0 11 -13 13 -35 2
-64 -36 -92 -33 -24 -51 -62 -40 -80 9 -15 35 0 35 21 0 10 12 31 26 46 l25
28 -23 -33 c-21 -31 -22 -34 -5 -43 23 -14 22 -33 -3 -26 -11 3 -20 1 -20 -3
0 -11 -40 -4 -52 8 -6 6 -10 579 -10 1363 0 1211 2 1354 16 1364 15 12 51 17
40 6z m-3532 -236 c-2 -60 -6 -112 -8 -114 -2 -2 -3 76 -2 175 1 131 3 161 8
114 4 -36 5 -114 2 -175z m3578 220 c0 -7 -8 -18 -17 -24 -17 -9 -16 -12 5
-43 l23 -33 -25 28 c-25 27 -34 66 -19 80 12 12 33 7 33 -8z m229 -34 c-9 -24
-9 -35 0 -44 16 -16 14 -40 -4 -33 -12 4 -14 0 -9 -21 5 -19 3 -24 -7 -21 -18
6 -13 91 8 131 19 37 26 29 12 -12z m101 9 c0 -10 -26 -20 -34 -13 -14 14 -5
31 14 26 11 -3 20 -9 20 -13z m-3870 -64 c0 -3 -4 -8 -10 -11 -5 -3 -10 -1
-10 4 0 6 5 11 10 11 6 0 10 -2 10 -4z m3717 -28 c-3 -8 -6 -5 -6 6 -1 11 2
17 5 13 3 -3 4 -12 1 -19z m-127 -48 c0 -5 -2 -10 -4 -10 -3 0 -8 5 -11 10 -3
6 -1 10 4 10 6 0 11 -4 11 -10z m-3430 -10 c0 -5 -2 -10 -4 -10 -3 0 -8 5 -11
10 -3 6 -1 10 4 10 6 0 11 -4 11 -10z m-152 -32 c2 -14 -4 -41 -12 -59 l-14
-34 -1 63 c-1 47 2 63 12 60 6 -3 13 -16 15 -30z m166 -14 c3 -8 2 -12 -4 -9
-6 3 -10 10 -10 16 0 14 7 11 14 -7z m-34 -8 c0 -3 -4 -8 -10 -11 -5 -3 -10
-1 -10 4 0 6 5 11 10 11 6 0 10 -2 10 -4z m3381 -39 c-8 -8 -11 -7 -11 4 0 20
13 34 18 19 3 -7 -1 -17 -7 -23z m89 -9 c0 -14 -4 -14 -24 -5 -23 11 -24 13
-9 30 18 19 33 8 33 -25z m253 25 c7 -7 -11 -33 -23 -33 -4 0 -10 9 -13 20 -4
14 0 20 12 20 10 0 21 -3 24 -7z m-3743 -19 c0 -8 -5 -12 -10 -9 -6 4 -8 11
-5 16 9 14 15 11 15 -7z m76 -6 c4 -7 3 -8 -4 -4 -7 4 -12 2 -12 -3 0 -6 -7
-11 -16 -11 -14 0 -14 -3 -3 -17 12 -17 12 -17 -6 -1 -19 17 -19 18 0 33 24
18 32 18 41 3z m3451 -25 c-3 -10 -5 -4 -5 12 0 17 2 24 5 18 2 -7 2 -21 0
-30z m-3527 -7 c0 -3 -4 -8 -10 -11 -5 -3 -10 -1 -10 4 0 6 5 11 10 11 6 0 10
-2 10 -4z m3403 -8 c-4 -7 -7 -22 -8 -33 0 -23 -36 -28 -43 -6 -3 8 0 11 7 7
19 -12 33 4 19 22 -8 10 -9 13 -1 9 6 -4 14 -3 18 3 3 5 8 10 11 10 3 0 2 -6
-3 -12z m-3243 -12 c0 -11 -19 -15 -25 -6 -3 5 1 10 9 10 9 0 16 -2 16 -4z
m3250 -72 c-7 -8 -15 -12 -18 -9 -3 3 -12 -1 -21 -7 -9 -7 -2 2 14 19 29 30
50 28 25 -3z m-40 11 c-7 -8 -18 -15 -24 -15 -6 0 -2 7 8 15 25 19 32 19 16 0z
m140 -48 c0 -11 -4 -15 -12 -11 -8 5 -9 2 -5 -9 3 -9 2 -19 -3 -22 -5 -3 -8
17 -7 45 2 42 4 47 15 33 6 -9 12 -25 12 -36z m-30 21 c0 -13 -23 -5 -28 10
-2 7 2 10 12 6 9 -3 16 -11 16 -16z m-3468 -10 c-7 -7 -12 -8 -12 -2 0 14 12
26 19 19 2 -3 -1 -11 -7 -17z m53 12 c-3 -5 -12 -10 -18 -10 -7 0 -6 4 3 10
19 12 23 12 15 0z m-261 -36 c5 -13 4 -14 -7 -6 -8 7 -18 8 -22 4 -5 -4 -5 -1
-1 6 10 17 23 15 30 -4z m3659 1 c4 -8 2 -17 -3 -20 -6 -4 -10 -4 -10 -1 0 2
-3 11 -6 20 -3 9 -2 16 4 16 5 0 12 -7 15 -15z m-3523 -41 c-4 -27 -16 -54
-30 -67 l-22 -22 4 33 c3 17 1 32 -3 32 -5 0 3 12 16 26 14 15 25 31 25 35 0
5 4 9 8 9 5 0 6 -21 2 -46z m3484 1 c4 -25 3 -35 -2 -26 -8 11 -10 11 -15 0
-3 -8 -6 -2 -6 13 -1 25 9 62 14 56 1 -2 5 -21 9 -43z m295 9 c4 3 13 0 21 -5
24 -15 -7 -29 -35 -15 -20 9 -22 14 -12 31 10 18 11 18 15 2 2 -9 7 -15 11
-13z m-139 -9 c7 -8 19 -15 26 -15 21 0 17 -47 -5 -71 -18 -20 -40 -11 -27 10
4 5 2 11 -2 13 -12 4 -23 78 -13 78 5 0 14 -7 21 -15z m-89 -45 c5 0 9 -5 9
-11 0 -8 -5 -8 -15 1 -8 7 -14 20 -14 29 1 13 2 13 6 -1 2 -10 9 -18 14 -18z
m-3654 -72 c-2 -18 -4 -6 -4 27 0 33 2 48 4 33 2 -15 2 -42 0 -60z m3814 -633
c-1 -475 2 -705 9 -705 10 0 12 172 10 1014 0 209 -3 382 -5 387 -3 4 2 9 10
13 13 4 14 -99 15 -824 0 -535 -4 -830 -10 -830 -6 0 -10 47 -10 115 0 63 -4
115 -8 115 -5 0 -8 -47 -8 -105 1 -57 -1 -112 -5 -122 -7 -17 -7 -17 -14 0 -4
10 -5 20 -2 24 9 9 -18 55 -46 79 -15 14 -23 30 -22 45 1 13 3 32 4 42 2 30
32 5 53 -44 18 -41 18 -42 13 -10 -3 18 -5 40 -5 47 0 8 -16 32 -36 54 -33 36
-35 43 -29 80 4 22 9 40 12 40 11 0 35 -33 43 -58 8 -26 8 -26 9 8 1 34 -13
63 -51 104 -14 15 -17 29 -12 55 8 45 7 44 32 21 12 -12 22 -33 22 -48 0 -21
2 -24 10 -12 16 25 0 73 -37 107 -30 28 -33 36 -27 67 3 20 9 36 12 36 16 0
42 -36 42 -59 0 -14 4 -32 9 -40 5 -8 7 5 5 33 -3 44 -24 90 -51 111 -7 6 -14
33 -15 60 -2 39 3 57 22 83 13 17 27 32 30 32 3 0 7 21 7 48 1 44 1 45 -7 13
-12 -49 -49 -70 -51 -28 -2 40 2 62 14 72 27 22 48 68 51 111 2 28 0 41 -5 33
-5 -8 -9 -25 -9 -38 0 -23 -25 -61 -40 -61 -4 0 -11 16 -14 36 -6 32 -4 39 29
69 27 24 38 44 42 73 3 24 1 42 -6 46 -7 5 -11 -3 -11 -22 0 -17 -9 -37 -24
-51 l-23 -22 -6 37 c-6 37 5 74 23 74 16 0 40 57 39 92 -1 25 -3 28 -7 13 -9
-26 -35 -65 -44 -65 -3 0 -9 18 -13 40 -6 37 -4 44 28 79 22 25 36 52 41 81 9
57 1 63 -15 10 -14 -45 -48 -75 -50 -43 -1 10 -3 29 -4 43 -2 18 7 34 32 55
26 22 35 39 35 60 0 32 7 50 15 41 3 -3 5 -322 4 -711z m-2101 660 c0 -41 -2
-45 -25 -45 -18 0 -25 -5 -25 -20 0 -13 -7 -20 -20 -20 -13 0 -20 7 -20 20 0
13 7 20 20 20 17 0 20 7 20 45 0 41 2 45 25 45 23 0 25 -4 25 -45z m-1632 -16
c28 39 32 41 32 20 0 -41 -19 -95 -40 -114 -15 -14 -20 -15 -20 -4 0 11 -2 11
-10 -1 -12 -19 -13 -70 -1 -70 9 0 48 44 66 74 7 13 10 -16 10 -98 0 -64 -3
-116 -6 -116 -4 0 -9 -14 -13 -32 -7 -34 -23 -58 -38 -58 -6 0 -8 9 -5 19 3
12 0 18 -7 15 -9 -3 -13 -65 -7 -109 2 -19 51 45 57 75 4 16 10 30 14 30 10 0
6 -76 -5 -110 -5 -16 -4 -21 5 -15 8 5 11 3 9 -4 -3 -7 -8 -12 -13 -11 -5 1
-14 -9 -20 -21 -12 -24 -32 -26 -30 -4 1 8 -4 16 -10 18 -7 3 -12 -20 -14 -72
-2 -72 -1 -74 13 -50 8 15 21 29 29 32 8 3 18 22 22 42 4 22 10 33 15 28 15
-15 -16 -142 -40 -164 l-21 -20 -1 28 -1 28 -8 -25 c-4 -14 -8 -43 -9 -64 l-1
-39 26 24 c14 13 32 38 39 54 l13 30 1 -27 c1 -40 -19 -128 -30 -128 -5 0 -9
-5 -9 -11 0 -6 8 -9 18 -7 13 4 17 -2 18 -26 0 -17 3 -44 7 -61 3 -16 3 -36
-2 -43 -6 -10 -10 -3 -15 22 -4 19 -15 41 -26 49 -10 7 -20 26 -22 42 l-4 30
-8 -28 c-5 -15 -5 -53 -1 -85 6 -46 9 -53 16 -34 11 29 27 28 35 -3 3 -14 10
-23 14 -20 4 3 11 -2 14 -11 4 -9 2 -13 -5 -8 -8 4 -9 -3 -5 -22 10 -51 15
-106 8 -99 -4 4 -7 10 -8 13 -4 30 -48 92 -66 92 -5 0 -7 -25 -6 -55 2 -30 6
-55 11 -55 4 0 7 10 7 22 0 20 1 21 20 3 11 -10 22 -33 26 -51 3 -19 9 -34 13
-34 8 0 7 -217 -2 -226 -4 -4 -7 0 -7 9 0 17 -47 77 -61 77 -12 0 -11 -51 1
-70 8 -12 10 -12 10 -1 0 11 5 10 20 -4 21 -19 40 -73 40 -114 0 -21 -4 -19
-32 20 l-33 44 -3 -48 c-2 -26 -7 -45 -13 -42 -5 4 -9 316 -9 809 0 723 5 915
20 769 l5 -48 33 44z m-81 -141 c-2 -18 -4 -4 -4 32 0 36 2 50 4 33 2 -18 2
-48 0 -65z m2271 30 c-2 -36 -7 -44 -25 -46 -15 -2 -23 -10 -23 -23 0 -12 -7
-19 -20 -19 -13 0 -20 7 -20 20 0 13 7 20 20 20 17 0 20 7 20 45 0 42 2 45 26
45 23 0 25 -3 22 -42z m1636 -39 c-8 -14 -34 -11 -34 4 0 8 3 17 7 20 9 9 34
-13 27 -24z m-3941 -5 c-6 -17 -33 -19 -33 -1 0 7 9 13 19 14 14 1 18 -3 14
-13z m34 -332 c-1 -53 -3 -7 -3 103 0 110 2 154 3 97 2 -57 2 -147 0 -200z
m1623 117 c0 -32 -4 -42 -19 -46 -11 -3 -21 -13 -24 -24 -3 -11 -14 -19 -26
-19 -28 0 -29 40 -1 47 15 4 20 14 20 37 0 37 6 46 32 46 14 0 18 -8 18 -41z
m-1650 -11 c0 -11 -29 -23 -36 -15 -3 3 -4 10 0 15 7 11 36 11 36 0z m3930
-13 c-7 -8 -16 -15 -21 -15 -5 0 -9 7 -9 15 0 9 9 15 21 15 18 0 19 -2 9 -15z
m-1762 -107 c-2 -36 -7 -44 -25 -46 -15 -2 -23 -10 -23 -23 0 -12 -7 -19 -20
-19 -13 0 -20 7 -20 20 0 13 7 20 20 20 17 0 20 7 20 45 0 42 2 45 26 45 23 0
25 -3 22 -42z m-258 -23 c0 -18 5 -25 20 -25 13 0 20 -7 20 -20 0 -13 7 -20
19 -20 16 0 20 -8 23 -42 2 -32 8 -43 23 -48 19 -5 20 -13 20 -215 l0 -210
-22 -3 c-22 -3 -23 -8 -23 -88 0 -77 -2 -84 -20 -84 -13 0 -20 -7 -20 -20 0
-17 -7 -20 -45 -20 -40 0 -45 -2 -45 -22 0 -20 -5 -23 -37 -23 -32 0 -39 -4
-41 -22 -3 -22 -8 -23 -93 -23 -82 0 -89 1 -89 20 0 26 -26 26 -33 -1 -7 -26
-53 -23 -51 4 2 16 -12 17 -161 17 -90 0 -170 3 -178 6 -9 3 -13 13 -10 25 5
17 0 19 -38 16 -40 -2 -44 0 -43 21 0 19 -4 22 -43 22 -36 0 -43 3 -43 19 0
15 -10 21 -40 26 -30 5 -40 11 -40 26 0 12 -7 19 -20 19 -13 0 -20 7 -20 19 0
13 -8 21 -22 23 -19 2 -24 10 -26 41 -3 32 0 37 18 37 12 0 24 9 29 23 5 12
17 23 30 23 11 1 28 2 36 3 8 0 15 10 15 22 0 19 5 20 63 19 134 -3 149 -1
154 20 4 15 14 20 39 20 31 0 49 12 49 35 0 6 6 11 13 11 6 1 17 2 22 3 6 0
10 10 10 20 0 16 8 20 43 23 35 2 41 6 39 22 -6 31 7 66 24 66 9 0 18 9 21 20
3 11 14 20 24 20 16 0 19 8 19 45 0 25 3 44 8 44 22 -4 32 3 32 21 0 17 7 20
45 20 38 0 45 3 45 20 0 17 7 20 40 20 32 0 40 4 40 18 0 10 3 22 7 25 3 4 53
7 110 7 l103 0 0 -25z m2030 -37 c0 -6 -7 -5 -15 2 -8 7 -15 17 -15 22 0 6 7
5 15 -2 8 -7 15 -17 15 -22z m-3913 -210 c-2 -35 -3 -7 -3 62 0 69 1 97 3 63
2 -35 2 -91 0 -125z m3901 140 c-6 -18 -28 -21 -28 -4 0 9 7 16 16 16 9 0 14
-5 12 -12z m-3938 -48 c0 -5 -7 -10 -15 -10 -8 0 -15 5 -15 10 0 6 7 10 15 10
8 0 15 -4 15 -10z m-15 -80 c3 -5 1 -10 -4 -10 -6 0 -11 5 -11 10 0 6 2 10 4
10 3 0 8 -4 11 -10z m3955 -142 c0 -4 -7 -8 -15 -8 -10 0 -14 9 -13 26 2 23 4
24 15 8 7 -10 13 -21 13 -26z m-3903 -285 c-1 -54 -3 -12 -3 92 0 105 2 149 3
98 2 -51 2 -136 0 -190z m3903 202 c-7 -9 -15 -13 -18 -10 -3 2 1 11 8 20 7 9
15 13 18 10 3 -2 -1 -11 -8 -20z m-6 -141 c18 -7 12 -24 -10 -24 -8 0 -14 7
-14 15 0 17 2 18 24 9z m-3927 -21 c2 -6 -4 -10 -13 -9 -10 2 -20 8 -22 15 -3
8 3 12 14 9 9 -1 19 -8 21 -15z m-4 -227 c4 -9 0 -13 -11 -12 -9 2 -18 8 -20
14 -5 17 25 15 31 -2z m34 -168 c-2 -35 -3 -7 -3 62 0 69 1 97 3 63 2 -35 2
-91 0 -125z m3903 142 c-19 -12 -33 2 -24 24 6 16 8 16 23 1 14 -14 14 -17 1
-25z m-120 -192 c0 -17 -5 -28 -14 -28 -7 0 -19 -7 -26 -15 -19 -22 -32 -18
-24 8 4 12 7 30 6 40 0 9 4 17 9 17 6 0 7 5 4 10 -3 6 -3 15 0 21 12 18 45
-21 45 -53z m-3680 -42 c4 -25 3 -46 -2 -46 -4 0 -8 7 -8 15 0 8 -3 15 -8 15
-4 0 -13 9 -20 21 -11 17 -11 20 0 14 10 -6 11 -5 1 6 -7 7 -13 24 -13 38 l0
25 21 -21 c13 -12 25 -41 29 -67z m3553 47 c-7 -3 -13 -12 -14 -21 0 -11 -2
-13 -6 -4 -6 15 17 46 26 36 3 -4 0 -9 -6 -11z m-71 -22 c7 11 8 9 4 -4 -3
-10 -6 -31 -6 -45 0 -21 -2 -24 -10 -12 -5 8 -9 29 -9 45 0 17 3 24 6 16 5
-11 7 -11 15 0z m328 -22 c0 -5 -9 -9 -21 -9 -11 0 -18 -4 -14 -9 3 -5 1 -12
-4 -16 -5 -3 -14 2 -19 12 -8 13 -5 20 11 28 23 12 47 9 47 -6z m-258 -37 c-3
-10 -1 -13 6 -8 16 10 16 -25 0 -47 -11 -14 -13 -8 -15 41 -2 36 1 52 6 43 5
-8 7 -21 3 -29z m-36 -19 c-11 -11 -17 4 -9 23 7 18 8 18 11 1 2 -10 1 -21 -2
-24z m-3305 0 c-11 -20 -51 -56 -51 -46 0 6 52 62 58 63 1 0 -2 -8 -7 -17z
m3459 -8 c-10 -12 -9 -15 5 -15 14 0 15 -3 5 -15 -6 -8 -8 -20 -4 -27 4 -7 4
-10 -1 -6 -15 14 -45 -12 -45 -40 l1 -27 13 30 c10 25 13 26 19 12 4 -10 3
-16 -2 -13 -12 8 -20 -43 -22 -127 -1 -37 -6 -70 -10 -73 -5 -3 -9 3 -10 13 0
17 -1 17 -8 -1 -8 -19 -4 151 5 221 4 30 13 49 31 63 30 24 40 26 23 5z m99
-1 c2 -2 -1 -15 -7 -29 -8 -17 -12 -97 -12 -231 0 -134 -3 -203 -10 -199 -6 4
-10 77 -10 187 0 160 -2 182 -17 194 -11 8 -13 13 -5 14 6 0 12 4 12 10 0 5
-7 7 -16 3 -12 -4 -15 -2 -12 8 3 8 15 13 28 11 15 -3 21 1 18 10 -3 7 -10 13
-16 13 -6 0 -17 6 -24 14 -11 11 -7 12 27 6 22 -4 42 -9 44 -11z m-3689 -15
c0 -6 -4 -7 -10 -4 -5 3 -10 11 -10 16 0 6 5 7 10 4 6 -3 10 -11 10 -16z m45
1 c3 -6 -1 -7 -9 -4 -18 7 -21 14 -7 14 6 0 13 -4 16 -10z m3405 -5 c-7 -9
-15 -13 -17 -11 -7 7 7 26 19 26 6 0 6 -6 -2 -15z m-59 -12 c22 -22 4 -28 -19
-6 -17 15 -19 21 -8 19 9 -1 21 -7 27 -13z m-3256 -63 c3 -5 -1 -10 -10 -10
-9 0 -13 5 -10 10 3 6 8 10 10 10 2 0 7 -4 10 -10z m3503 -21 c3 -12 2 -12 -6
0 -8 11 -12 9 -22 -8 -6 -12 -11 -37 -12 -54 0 -42 -7 -69 -17 -62 -10 5 6
101 21 128 10 20 30 18 36 -4z m-3663 1 c3 -5 1 -10 -4 -10 -6 0 -11 5 -11 10
0 6 2 10 4 10 3 0 8 -4 11 -10z m50 0 c-8 -13 20 -42 30 -32 5 4 5 1 1 -5 -9
-17 -24 -16 -42 1 -14 15 -9 46 8 46 5 0 6 -5 3 -10z m3355 4 c0 -8 -19 -13
-24 -6 -3 5 1 9 9 9 8 0 15 -2 15 -3z m127 -41 c-3 -10 -5 -4 -5 12 0 17 2 24
5 18 2 -7 2 -21 0 -30z m-3639 -51 c9 -38 3 -52 -24 -52 -2 0 -4 28 -4 63 1
67 12 63 28 -11z m245 53 c4 -8 2 -17 -3 -20 -6 -4 -10 3 -10 14 0 25 6 27 13
6z m3348 -28 c-7 -7 -15 -6 -26 3 -14 11 -13 14 7 24 18 10 24 9 26 -2 2 -8
-1 -19 -7 -25z m-3481 17 c0 -8 -5 -12 -10 -9 -6 4 -8 11 -5 16 9 14 15 11 15
-7z m3739 3 c13 -16 5 -27 -20 -27 -12 0 -16 6 -12 20 6 23 16 25 32 7z m-329
-18 c0 -5 -4 -9 -10 -9 -5 0 -10 7 -10 16 0 8 5 12 10 9 6 -3 10 -10 10 -16z
m-3309 -22 c-13 -13 -26 -3 -16 12 3 6 11 8 17 5 6 -4 6 -10 -1 -17z m-86 3
c3 -5 1 -10 -4 -10 -6 0 -11 5 -11 10 0 6 2 10 4 10 3 0 8 -4 11 -10z m38 -15
c-3 -9 -8 -14 -10 -11 -3 3 -2 9 2 15 9 16 15 13 8 -4z m-13 -45 c0 -5 -5 -10
-11 -10 -5 0 -7 5 -4 10 3 6 8 10 11 10 2 0 4 -4 4 -10z m40 -11 c0 -5 -4 -9
-8 -9 -5 0 -9 7 -9 15 0 8 4 12 9 9 4 -3 8 -9 8 -15z m3390 1 c0 -5 -5 -10
-11 -10 -5 0 -7 5 -4 10 3 6 8 10 11 10 2 0 4 -4 4 -10z m166 -35 c-5 -19 -3
-23 9 -19 18 7 20 -17 4 -33 -8 -8 -9 -20 -1 -42 14 -38 -2 -41 -16 -3 -14 37
-23 107 -15 115 15 15 25 5 19 -18z m-39 -27 c-3 -8 -6 -5 -6 6 -1 11 2 17 5
13 3 -3 4 -12 1 -19z m-3606 -77 c20 -16 21 -21 10 -35 -7 -9 -11 -25 -8 -36
3 -12 1 -18 -5 -14 -5 4 -8 20 -6 36 5 34 -14 48 -43 30 -15 -10 -17 -8 -16 9
1 14 7 19 19 16 10 -3 16 -1 12 4 -9 16 13 10 37 -10z m3759 -1 c0 -4 -9 -10
-20 -13 -19 -5 -28 12 -14 26 8 7 34 -3 34 -13z m-121 -25 c17 -19 38 -50 46
-68 14 -28 10 -26 -30 18 -25 27 -45 55 -45 61 0 7 -6 15 -12 17 -9 4 -9 6 -2
6 7 1 26 -15 43 -34z m-3525 -4 c-2 -3 -12 3 -22 13 -16 17 -16 18 5 5 12 -7
20 -15 17 -18z m3476 19 c11 -8 8 -9 -13 -4 -16 4 -33 1 -42 -6 -15 -12 -22 0
-8 13 10 10 46 8 63 -3z m-3615 -20 c3 -5 2 -10 -4 -10 -5 0 -13 5 -16 10 -3
6 -2 10 4 10 5 0 13 -4 16 -10z m542 3 c-20 -2 -52 -2 -70 0 -17 2 0 4 38 4
39 0 53 -2 32 -4z m136 0 c-7 -2 -19 -2 -25 0 -7 3 -2 5 12 5 14 0 19 -2 13
-5z m44 1 c-3 -3 -12 -4 -19 -1 -8 3 -5 6 6 6 11 1 17 -2 13 -5z m126 -1 c-7
-2 -19 -2 -25 0 -7 3 -2 5 12 5 14 0 19 -2 13 -5z m44 1 c-3 -3 -12 -4 -19 -1
-8 3 -5 6 6 6 11 1 17 -2 13 -5z m40 0 c-3 -3 -12 -4 -19 -1 -8 3 -5 6 6 6 11
1 17 -2 13 -5z m76 -1 c-7 -2 -19 -2 -25 0 -7 3 -2 5 12 5 14 0 19 -2 13 -5z
m44 1 c-3 -3 -12 -4 -19 -1 -8 3 -5 6 6 6 11 1 17 -2 13 -5z m1430 -1 c-258
-2 -676 -2 -930 0 -254 1 -43 2 468 2 512 0 719 -1 462 -2z m530 1 c-3 -3 -12
-4 -19 -1 -8 3 -5 6 6 6 11 1 17 -2 13 -5z m82 -4 c-6 -5 -18 -6 -26 -3 -19 8
-16 11 13 11 17 0 22 -3 13 -8z m54 3 c-7 -2 -19 -2 -25 0 -7 3 -2 5 12 5 14
0 19 -2 13 -5z m-2881 -33 c2 -16 0 -32 -6 -34 -6 -2 -3 -5 7 -5 9 -1 17 -7
17 -14 0 -24 43 -35 74 -18 22 12 30 13 33 3 4 -10 293 -12 1423 -12 862 0
1428 -3 1443 -9 16 -6 28 -6 35 1 11 11 52 -6 52 -23 0 -6 -7 -6 -19 1 -24 12
-38 -4 -22 -24 9 -10 4 -13 -19 -14 -17 0 -40 -4 -51 -7 -17 -6 -19 -9 -8 -16
11 -7 10 -9 -4 -9 -13 0 -18 6 -15 23 3 19 9 22 41 21 20 -1 37 2 37 7 0 5
-13 9 -30 9 -22 0 -30 5 -30 17 0 16 -1 16 -13 0 -11 -17 -97 -17 -1408 -15
-1165 3 -1399 5 -1412 17 -15 12 -17 11 -17 -4 0 -14 -6 -16 -30 -13 -16 3
-30 1 -30 -3 0 -4 17 -9 37 -11 40 -3 59 -27 19 -24 -13 0 -22 4 -20 8 2 3
-12 5 -31 4 -33 -3 -46 6 -26 19 6 3 9 14 8 25 -1 10 -5 16 -9 14 -5 -3 -6 -9
-3 -13 7 -13 -21 -45 -33 -37 -17 10 -12 66 7 67 12 1 12 2 -2 6 -14 4 -17 11
-13 29 5 17 2 26 -9 30 -12 5 -13 9 -4 20 18 21 26 17 31 -16z m3325 12 c-13
-3 -17 -10 -14 -23 3 -10 4 -19 2 -19 -2 0 -12 -3 -22 -6 -15 -6 -16 -4 -5 7
6 7 12 23 12 35 0 18 4 21 23 16 19 -5 19 -7 4 -10z m-3469 -6 c-7 -8 -15 -12
-17 -11 -5 6 10 25 20 25 5 0 4 -6 -3 -14z m3527 5 c3 -6 -4 -9 -15 -8 -11 1
-20 5 -20 9 0 11 28 10 35 -1z m-286 -18 c0 -11 -3 -13 -6 -5 -2 6 -9 10 -13
7 -5 -3 -11 -1 -15 5 -3 5 3 10 14 10 14 0 21 -6 20 -17z m-79 -12 c0 -5 3
-16 6 -25 3 -9 2 -16 -4 -16 -5 0 -12 11 -14 25 -3 14 -1 25 3 25 5 0 9 -4 9
-9z m187 3 c-3 -3 0 -19 8 -36 22 -54 -3 -89 -39 -53 -8 8 -19 15 -24 15 -5 0
-15 6 -21 14 -17 20 2 53 31 59 37 7 52 7 45 1z m-3134 -34 c16 0 18 -3 9 -12
-13 -13 -43 6 -41 26 0 7 2 6 6 -1 2 -7 14 -13 26 -13z m425 12 c13 -1 21 -6
17 -12 -3 -5 -34 -7 -71 -4 -46 4 -70 2 -81 -8 -14 -11 -16 -11 -11 2 5 12 -4
14 -51 11 -31 -1 -59 -8 -63 -14 -4 -7 -11 -5 -22 5 -8 9 -13 17 -11 19 3 4
251 5 293 1z m1130 -1 c480 -1 871 -5 868 -9 -2 -4 -54 -8 -115 -7 -68 0 -111
-4 -111 -10 0 -7 -3 -7 -8 0 -9 13 -221 13 -241 1 -8 -5 -12 -5 -8 0 7 13
-946 12 -955 -1 -5 -7 -8 -7 -8 0 0 6 -33 10 -80 10 -44 0 -80 -3 -80 -7 0 -5
-5 -8 -11 -8 -5 0 -8 3 -6 8 3 4 -51 8 -119 9 -71 1 -124 -2 -124 -8 0 -5 -5
-9 -11 -9 -5 0 -8 4 -5 8 7 12 -68 9 -76 -3 -5 -6 -8 -3 -8 7 0 19 32 24 150
21 41 -1 468 -2 948 -2z m1452 -11 c0 -5 -8 -10 -17 -11 -15 0 -15 -2 2 -9 16
-7 17 -9 3 -9 -23 -1 -34 19 -17 30 19 12 29 11 29 -1z m-76 -21 c-3 -5 -10
-7 -15 -3 -5 3 -7 10 -3 15 3 5 10 7 15 3 5 -3 7 -10 3 -15z m-3295 -20 c-13
-26 -20 -21 -12 9 3 12 9 19 14 16 5 -3 4 -14 -2 -25z m3732 14 c13 -16 12
-17 -3 -4 -10 7 -18 15 -18 17 0 8 8 3 21 -13z m-3698 -39 c1 -4 -6 -8 -15
-10 -21 -3 -23 7 -6 24 12 12 15 9 21 -14z m3628 -14 c5 0 4 -6 -3 -14 -11
-12 -14 -12 -19 2 -3 9 -3 26 0 37 5 19 6 19 9 -2 2 -13 8 -23 13 -23z m-231
20 c0 -5 -8 -14 -18 -19 -14 -7 -18 -6 -18 10 0 12 7 19 18 19 10 0 18 -4 18
-10z m-3446 -37 c5 -17 3 -21 -11 -19 -10 2 -21 -2 -25 -8 -5 -6 -8 -2 -8 12
0 12 5 22 10 22 6 0 10 8 10 17 0 21 15 6 24 -24z m269 11 c-4 -11 -8 -12 -20
-3 -11 10 -11 14 -1 20 17 10 28 2 21 -17z m3106 -8 c-3 -3 -11 5 -18 17 -13
21 -12 21 5 5 10 -10 16 -20 13 -22z m-3149 -1 c0 -10 -40 -10 -43 0 -4 8 3
10 19 7 13 -2 24 -6 24 -7z m285 -5 c5 0 3 5 -5 10 -10 6 100 10 321 10 185 0
339 -3 343 -7 10 -10 37 -13 31 -3 -3 5 8 5 24 0 20 -6 32 -5 35 3 5 9 8 9 12
0 3 -7 10 -13 15 -13 6 0 8 4 4 9 -6 10 41 5 58 -6 6 -3 7 -1 3 5 -4 7 -3 12
3 12 5 0 13 -4 16 -10 3 -5 15 -10 26 -10 13 0 18 4 13 12 -5 7 -3 8 7 2 17
-11 180 -13 173 -2 -6 10 10 11 20 1 10 -11 226 -10 226 0 0 4 6 5 13 0 16
-11 227 -11 227 0 0 4 6 5 13 0 17 -12 127 -10 127 2 0 6 4 4 8 -2 8 -13 68
-13 89 0 6 4 14 3 18 -3 9 -14 45 -12 45 3 0 8 3 8 8 2 8 -13 151 -14 171 -1
8 5 16 4 20 -2 4 -7 36 -9 91 -5 47 3 186 6 310 7 215 1 225 0 235 -19 6 -11
22 -26 35 -33 24 -13 24 -14 2 -9 -14 4 -25 0 -29 -9 -4 -11 -7 -11 -19 0 -15
15 -132 20 -154 6 -8 -5 -22 -3 -34 5 -21 13 -56 19 -86 15 -8 -1 -4 -6 10
-10 23 -8 23 -8 -8 -9 -28 -1 -32 2 -27 18 5 17 0 19 -62 19 -47 -1 -60 -3
-43 -8 19 -6 14 -8 -21 -7 -50 1 -83 -17 -75 -40 4 -11 0 -13 -15 -8 -34 11
-99 14 -99 4 0 -5 -9 -9 -21 -9 -11 0 -17 5 -14 10 3 6 -1 10 -9 10 -8 0 -17
-4 -20 -8 -7 -11 -265 -22 -272 -11 -3 5 -42 4 -134 -5 -19 -2 -41 2 -49 8
-11 8 -13 8 -8 -1 5 -8 -1 -11 -20 -8 -16 2 -30 4 -33 5 -5 2 -95 -1 -160 -5
-19 -1 -41 3 -49 9 -11 8 -13 8 -7 -1 8 -14 -6 -18 -18 -6 -6 6 -76 6 -151 -1
-16 -2 -36 2 -44 8 -11 8 -13 8 -7 -2 6 -10 1 -11 -21 -7 -24 6 -148 9 -148 5
0 -9 -222 -4 -227 4 -5 7 -8 7 -8 -2 0 -9 -5 -10 -17 -4 -10 5 -49 13 -88 17
-38 4 -78 14 -87 22 -14 13 -30 13 -115 3 -54 -7 -116 -20 -139 -31 -45 -21
-58 -24 -50 -11 3 5 -38 17 -91 27 l-97 18 -17 -22 c-17 -20 -20 -21 -46 -8
-15 8 -36 13 -46 11 -12 -1 -17 3 -15 14 3 13 13 16 45 14 34 -3 44 1 60 22
11 15 22 21 28 15 5 -5 14 -9 20 -9z m-452 -5 c-3 -9 -8 -14 -10 -11 -3 3 -2
9 2 15 9 16 15 13 8 -4z m3467 12 c0 -2 -10 -12 -22 -23 l-23 -19 19 23 c18
21 26 27 26 19z m-3204 -20 c9 3 14 -2 14 -17 0 -20 -2 -21 -17 -9 -9 8 -26
13 -37 11 -21 -3 -21 -2 -1 13 11 9 21 11 23 6 2 -5 10 -7 18 -4z m3104 -2 c0
-1 -12 -2 -26 -2 -17 0 -22 2 -13 7 10 7 39 3 39 -5z m-3469 -107 c15 -20 17
-29 8 -26 -24 8 -59 69 -58 102 l0 31 14 -38 c8 -21 24 -52 36 -69z m291 84
c12 -15 11 -16 -5 -3 -13 10 -23 11 -41 3 -16 -7 -23 -7 -23 1 0 19 54 18 69
-1z m3118 3 c0 -8 -2 -15 -4 -15 -2 0 -6 7 -10 15 -3 8 -1 15 4 15 6 0 10 -7
10 -15z m99 12 c-2 -1 -15 -11 -29 -22 l-25 -20 19 23 c11 12 24 22 29 22 6 0
8 -1 6 -3z m196 -7 c3 -5 1 -10 -4 -10 -6 0 -11 5 -11 10 0 6 2 10 4 10 3 0 8
-4 11 -10z m-337 -8 c8 -6 2 -9 -18 -9 -20 0 -26 3 -18 9 7 4 15 8 18 8 3 0
11 -4 18 -8z m-3023 -12 c-3 -5 -12 -10 -18 -10 -7 0 -6 4 3 10 19 12 23 12
15 0z m2696 -8 c-7 -2 -18 1 -23 6 -8 8 -4 9 13 5 13 -4 18 -8 10 -11z m729
-43 c-7 -16 -16 -29 -20 -29 -5 0 -1 18 8 40 9 21 19 35 21 29 1 -5 -2 -23 -9
-40z m-2870 11 c-20 -13 -37 -12 -46 2 -4 6 -3 8 3 5 6 -4 16 0 23 9 10 11 16
12 24 4 8 -8 7 -13 -4 -20z m1994 14 c3 -8 10 -13 15 -9 5 3 12 2 15 -3 10
-17 -33 -10 -50 9 -15 16 -15 19 -2 19 9 0 19 -7 22 -16z m342 5 c3 -6 1 -16
-5 -22 -9 -9 -15 -8 -23 6 -9 18 -11 18 -36 -5 l-27 -23 24 28 c25 28 55 35
67 16z m-2966 -3 c0 -3 -4 -8 -10 -11 -5 -3 -10 -1 -10 4 0 6 5 11 10 11 6 0
10 -2 10 -4z m292 -3 c-12 -2 -20 -8 -17 -13 3 -5 1 -11 -4 -14 -12 -8 -24 11
-16 24 3 6 18 9 33 9 24 -2 24 -2 4 -6z m2958 -3 c0 -5 -2 -10 -4 -10 -3 0 -8
5 -11 10 -3 6 -1 10 4 10 6 0 11 -4 11 -10z m-2909 -17 c13 -16 12 -17 -3 -4
-10 7 -18 15 -18 17 0 8 8 3 21 -13z m-548 -7 c23 -18 22 -36 -3 -36 -20 0
-44 32 -33 44 9 9 16 7 36 -8z m3658 0 c5 3 9 1 9 -5 0 -5 -13 -16 -30 -25
-28 -14 -30 -13 -30 6 0 14 5 18 15 14 8 -3 14 -2 14 2 -3 16 3 26 8 14 2 -6
9 -10 14 -6z m-2906 -66 c18 -8 17 -9 -7 -9 -16 -1 -28 4 -28 9 0 12 8 12 35
0z m2170 0 c-3 -5 -10 -10 -16 -10 -5 0 -9 5 -9 10 0 6 7 10 16 10 8 0 12 -4
9 -10z m-2792 -14 c18 -14 15 -18 -23 -31 -28 -10 -39 -19 -33 -29 4 -6 -1 -5
-10 3 -23 18 -21 38 3 46 11 4 18 11 15 16 -9 14 28 10 48 -5z m3457 -20 c0
-17 -7 -22 -31 -24 -19 -2 -28 2 -24 8 3 5 1 10 -4 10 -8 0 -8 6 0 18 16 26
59 17 59 -12z m-3671 -5 c8 -5 9 -11 3 -15 -5 -3 -15 1 -22 9 -14 16 -3 20 19
6z m3508 3 c-3 -3 -12 -4 -19 -1 -8 3 -5 6 6 6 11 1 17 -2 13 -5z m297 -9
c-25 -19 -35 -19 -28 0 4 8 16 15 27 15 20 0 20 0 1 -15z m-3827 -22 c-8 -7
-37 9 -31 19 3 5 12 4 20 -3 8 -6 13 -14 11 -16z m363 7 c0 -5 -5 -10 -11 -10
-5 0 -7 5 -4 10 3 6 8 10 11 10 2 0 4 -4 4 -10z m3120 0 c0 -5 -2 -10 -4 -10
-3 0 -8 5 -11 10 -3 6 -1 10 4 10 6 0 11 -4 11 -10z m388 -11 c3 -12 2 -12 -6
0 -6 8 -15 10 -22 6 -9 -5 -11 -4 -6 4 10 15 28 10 34 -10z m-3724 -28 c-3 -3
-15 6 -27 18 l-22 24 27 -19 c14 -10 24 -21 22 -23z m3576 14 c-7 -8 -17 -15
-23 -15 -6 0 -2 7 9 15 25 19 30 19 14 0z m-3580 -43 c2 -2 -2 -7 -10 -12 -25
-16 -59 -11 -70 9 -16 31 -12 43 11 36 16 -6 20 -4 14 6 -5 8 5 3 21 -11 16
-14 31 -26 34 -28z m3636 1 c-19 -19 -66 -28 -66 -11 0 19 20 38 42 38 10 0
18 6 19 13 0 6 4 3 9 -8 5 -12 3 -25 -4 -32z m-3436 27 c0 -5 -5 -10 -11 -10
-5 0 -7 5 -4 10 3 6 8 10 11 10 2 0 4 -4 4 -10z m-66 -17 c8 -19 -14 -37 -28
-23 -10 10 -1 40 13 40 5 0 12 -8 15 -17z m3326 -3 c-19 -12 -40 -13 -40 -1 0
9 40 20 50 13 2 -2 -2 -7 -10 -12z m-480 -14 c0 -3 -4 -8 -10 -11 -5 -3 -10
-1 -10 4 0 6 5 11 10 11 6 0 10 -2 10 -4z m-33 -12 c-3 -3 -12 -4 -19 -1 -8 3
-5 6 6 6 11 1 17 -2 13 -5z"/>
<path d="M733 3543 c20 -2 54 -2 75 0 20 2 3 4 -38 4 -41 0 -58 -2 -37 -4z"/>
<path d="M493 3511 c4 -28 12 -34 14 -11 1 11 -2 22 -8 25 -5 4 -8 -3 -6 -14z"/>
<path d="M1018 3493 c7 -3 16 -2 19 1 4 3 -2 6 -13 5 -11 0 -14 -3 -6 -6z"/>
<path d="M2878 3493 c50 -2 134 -2 185 0 50 1 9 3 -93 3 -102 0 -143 -2 -92
-3z"/>
<path d="M341 1104 c0 -11 3 -14 6 -6 3 7 2 16 -1 19 -3 4 -6 -2 -5 -13z"/>
<path d="M375 760 c-3 -5 1 -10 10 -10 9 0 13 5 10 10 -3 6 -8 10 -10 10 -2 0
-7 -4 -10 -10z"/>
<path d="M3450 3305 c-1 -28 -1 -29 -15 -11 -8 11 -18 17 -21 13 -8 -8 11 -63
21 -59 4 2 12 -2 16 -10 7 -10 9 -10 9 0 0 7 5 10 10 7 7 -4 10 8 8 33 -2 22
-6 38 -10 36 -3 -2 -9 2 -11 8 -3 7 -6 0 -7 -17z"/>
<path d="M3414 3184 c3 -9 6 -20 6 -25 0 -5 6 -9 14 -9 8 0 17 -6 19 -12 3 -7
6 -4 6 7 1 17 3 17 11 5 7 -11 10 -7 10 18 0 32 -22 45 -34 20 -5 -10 -7 -10
-12 0 -8 18 -27 15 -20 -4z"/>
<path d="M3450 3093 c0 -12 -3 -13 -14 -4 -10 8 -16 9 -21 2 -8 -14 13 -53 25
-46 4 3 11 -1 13 -7 4 -10 6 -10 6 0 1 7 6 10 11 7 6 -4 10 6 10 23 0 17 -6
32 -15 36 -9 3 -15 -1 -15 -11z"/>
<path d="M3450 2995 c0 -18 -17 -20 -23 -2 -8 23 -18 0 -11 -27 4 -18 11 -25
20 -22 8 3 14 0 14 -7 0 -8 3 -8 9 2 7 11 9 11 14 0 3 -8 6 2 6 22 1 24 -4 39
-14 43 -9 3 -15 0 -15 -9z"/>
<path d="M3414 2878 c3 -13 6 -26 6 -29 0 -11 40 -18 40 -7 0 5 5 6 11 3 7 -5
9 3 7 21 -3 31 -28 46 -28 17 -1 -17 -1 -17 -14 0 -18 24 -29 21 -22 -5z"/>
<path d="M3414 2778 c3 -13 6 -26 6 -29 0 -12 40 -17 40 -6 0 7 5 5 10 -3 7
-11 10 -7 10 18 0 22 -5 32 -15 32 -8 0 -15 -6 -15 -12 -1 -8 -6 -6 -14 5 -18
24 -29 21 -22 -5z"/>
<path d="M3415 2673 c8 -34 5 -31 38 -37 25 -4 27 -2 27 30 0 35 -16 46 -26
19 -4 -8 -10 -15 -15 -15 -5 0 -9 7 -9 15 0 8 -5 15 -11 15 -7 0 -9 -10 -4
-27z"/>
<path d="M3410 2583 c0 -23 11 -38 33 -46 10 -4 17 -2 17 6 0 8 4 6 10 -3 7
-11 10 -8 10 16 0 32 -24 53 -34 31 -5 -9 -7 -9 -12 1 -8 18 -24 15 -24 -5z"/>
<path d="M3410 2483 c0 -26 16 -47 29 -39 6 4 11 1 11 -6 0 -10 2 -10 9 1 7
11 9 11 14 0 3 -8 6 1 6 20 1 31 -1 33 -24 27 -14 -4 -25 -2 -25 4 0 5 -4 10
-10 10 -5 0 -10 -8 -10 -17z"/>
<path d="M3414 2378 c3 -13 6 -27 6 -32 0 -4 7 -6 15 -2 8 3 15 0 15 -7 0 -8
3 -8 9 2 7 11 9 11 14 0 3 -8 6 3 6 24 1 39 -6 45 -28 25 -11 -10 -14 -10 -18
0 -8 22 -26 13 -19 -10z"/>
<path d="M3410 2283 c0 -23 11 -38 33 -46 10 -4 17 -2 17 6 0 8 4 6 10 -3 7
-11 10 -5 10 23 0 37 -21 52 -34 25 -5 -10 -7 -10 -12 0 -8 18 -24 15 -24 -5z"/>
<path d="M3410 2190 c0 -31 14 -55 28 -46 6 3 13 0 15 -6 4 -10 6 -10 6 0 1 7
6 10 11 7 6 -4 10 7 10 25 0 28 -2 30 -21 20 -17 -9 -23 -8 -35 7 -13 17 -13
16 -14 -7z"/>
<path d="M3410 2085 c0 -15 7 -28 18 -32 9 -4 20 -11 24 -17 5 -7 8 -7 8 2 0
7 5 10 10 7 6 -4 10 7 10 25 0 29 -2 32 -25 26 -14 -4 -25 -2 -25 4 0 5 -4 10
-10 10 -5 0 -10 -11 -10 -25z"/>
<path d="M3410 1996 c0 -26 12 -46 27 -46 8 0 13 -6 11 -12 -3 -7 -11 -13 -19
-13 -8 0 -15 -10 -17 -22 -4 -27 6 -29 24 -5 8 10 13 12 14 5 0 -18 30 -16 30
1 0 8 -4 18 -10 21 -5 3 -10 14 -10 23 0 15 2 15 10 2 7 -11 10 -7 10 17 0 36
-17 53 -32 32 -7 -11 -11 -11 -15 -1 -7 17 -23 15 -23 -2z"/>
<path d="M3440 1852 c-21 -7 -30 -23 -30 -52 1 -23 2 -23 14 -8 8 11 20 15 34
11 19 -5 22 -1 22 28 0 23 -3 30 -9 20 -5 -7 -10 -9 -12 -4 -2 6 -11 8 -19 5z"/>
<path d="M3438 1752 c-10 -2 -21 -15 -24 -28 -8 -29 3 -45 16 -24 7 12 12 12
22 2 20 -20 28 -14 28 26 0 24 -3 32 -9 23 -5 -7 -10 -9 -12 -4 -2 5 -12 7
-21 5z"/>
<path d="M3451 1653 c-1 -7 -7 -10 -15 -7 -9 3 -16 -4 -20 -22 -8 -30 1 -45
14 -24 7 11 12 11 23 2 18 -16 27 -5 27 32 0 21 -3 27 -9 17 -7 -11 -9 -11
-14 0 -4 9 -6 10 -6 2z"/>
<path d="M3443 1556 c-12 -6 -25 -21 -28 -34 -6 -25 4 -46 12 -25 3 8 14 11
29 7 21 -6 24 -3 24 24 0 36 -7 42 -37 28z"/>
<path d="M3438 1452 c-10 -2 -21 -15 -24 -28 -8 -30 3 -44 17 -24 8 11 12 12
15 3 10 -23 34 -1 34 31 0 21 -3 27 -9 17 -5 -7 -10 -9 -12 -4 -2 5 -12 7 -21
5z"/>
<path d="M3438 1352 c-10 -2 -18 -7 -18 -10 0 -4 -3 -17 -6 -29 -4 -14 -2 -23
5 -23 6 0 11 7 11 15 0 20 16 19 24 -1 9 -23 26 -7 26 25 0 27 -7 31 -42 23z"/>
<path d="M3438 1252 c-16 -3 -34 -49 -23 -60 3 -3 12 3 20 14 8 11 15 14 15 7
0 -7 7 -13 15 -13 10 0 15 10 15 33 0 22 -3 28 -9 18 -5 -7 -10 -9 -12 -4 -2
5 -11 7 -21 5z"/>
<path d="M3438 1152 c-16 -3 -34 -49 -23 -60 3 -3 12 3 20 14 14 18 14 18 15
1 0 -33 25 -12 28 24 2 23 0 30 -6 20 -5 -7 -11 -9 -13 -4 -2 5 -11 7 -21 5z"/>
<path d="M3451 1063 c0 -7 -7 -13 -15 -13 -14 0 -32 -48 -21 -58 3 -3 12 3 20
14 13 17 14 17 15 2 0 -10 7 -18 15 -18 11 0 15 11 15 38 0 25 -3 33 -9 23 -7
-11 -10 -10 -14 5 -2 10 -5 13 -6 7z"/>
<path d="M3420 926 c-10 -27 -2 -40 16 -25 11 9 14 8 14 -6 0 -14 3 -15 15 -5
8 7 15 22 15 34 0 30 -49 31 -60 2z"/>
<path d="M3451 853 c0 -7 -7 -13 -15 -13 -7 0 -16 -10 -19 -22 -8 -27 1 -37
14 -18 8 11 12 12 16 3 10 -27 33 -13 33 20 0 22 -3 28 -9 18 -7 -11 -10 -10
-14 5 -2 10 -5 13 -6 7z"/>
<path d="M3451 752 c-1 -7 -6 -10 -11 -7 -12 7 -33 -42 -24 -56 3 -6 12 -2 20
8 12 17 13 16 14 -12 1 -16 4 -24 7 -17 2 6 8 10 11 8 4 -2 8 14 10 36 1 23
-1 37 -7 34 -5 -3 -12 0 -14 6 -4 10 -6 10 -6 0z"/>
<path d="M525 3399 c-4 -6 -5 -12 -2 -15 2 -3 7 2 10 11 7 17 1 20 -8 4z"/>
<path d="M603 3280 c0 -41 2 -58 4 -37 2 20 2 54 0 75 -2 20 -4 3 -4 -38z"/>
<path d="M521 3275 c-2 -40 0 -44 19 -40 31 6 40 14 40 38 0 16 -3 19 -9 8
-11 -18 -31 -5 -31 20 0 39 -16 17 -19 -26z"/>
<path d="M474 3130 c0 -58 1 -81 3 -52 2 28 2 76 0 105 -2 28 -3 5 -3 -53z"/>
<path d="M527 3214 c-4 -4 -7 -28 -7 -53 0 -33 3 -42 10 -31 9 13 10 13 10 0
0 -12 2 -12 9 -2 4 8 12 12 17 10 5 -1 10 7 12 18 2 16 -2 22 -14 20 -11 0
-20 8 -23 22 -4 13 -9 20 -14 16z"/>
<path d="M602 3140 c0 -19 2 -27 5 -17 2 9 2 25 0 35 -3 9 -5 1 -5 -18z"/>
<path d="M521 3060 c-1 -39 2 -51 9 -40 9 13 10 13 10 0 0 -13 1 -13 10 0 5 8
10 11 10 5 0 -14 20 17 20 32 0 7 -6 10 -14 7 -9 -3 -20 5 -30 23 l-15 28 0
-55z"/>
<path d="M602 3075 c0 -16 2 -22 5 -12 2 9 2 23 0 30 -3 6 -5 -1 -5 -18z"/>
<path d="M472 2990 c0 -14 2 -19 5 -12 2 6 2 18 0 25 -3 6 -5 1 -5 -13z"/>
<path d="M521 2840 c1 -138 1 -141 22 -138 26 4 37 16 37 43 -1 19 -1 19 -11
2 -14 -23 -29 -12 -29 21 0 25 19 70 20 47 0 -15 20 18 20 34 0 10 -3 11 -13
3 -10 -9 -16 -4 -24 18 -9 23 -8 32 3 41 8 6 14 8 14 3 0 -18 20 22 20 40 0
19 0 19 -14 1 -13 -18 -14 -18 -20 3 -17 54 -26 13 -25 -118z"/>
<path d="M521 2578 c0 -56 4 -97 7 -92 4 5 14 9 22 9 19 -1 30 14 29 40 0 11
-3 14 -6 8 -7 -19 -21 -16 -33 7 -12 22 5 58 25 56 6 0 11 9 13 21 3 18 0 21
-13 17 -11 -5 -18 0 -22 15 -13 50 -23 14 -22 -81z"/>
<path d="M602 2520 c0 -14 2 -19 5 -12 2 6 2 18 0 25 -3 6 -5 1 -5 -13z"/>
<path d="M520 2427 c0 -45 1 -47 20 -37 11 6 20 7 20 3 0 -17 20 23 20 41 0
19 0 19 -14 1 -13 -18 -14 -17 -29 11 l-16 29 -1 -48z"/>
<path d="M520 2308 c0 -32 3 -39 10 -28 5 8 10 11 10 7 0 -4 9 -3 20 3 13 7
20 20 19 38 0 15 -3 21 -6 15 -6 -15 -33 -17 -33 -3 0 6 -4 10 -10 10 -5 0
-10 -19 -10 -42z"/>
<path d="M492 2320 c0 -14 2 -19 5 -12 2 6 2 18 0 25 -3 6 -5 1 -5 -13z"/>
<path d="M471 2274 c0 -11 3 -14 6 -6 3 7 2 16 -1 19 -3 4 -6 -2 -5 -13z"/>
<path d="M520 2217 c0 -32 3 -37 24 -37 13 0 27 7 30 16 9 24 7 36 -5 29 -5
-4 -19 1 -30 11 -18 17 -19 16 -19 -19z"/>
<path d="M520 2102 c0 -23 2 -42 5 -42 18 0 55 36 55 53 0 16 -3 18 -12 9 -9
-9 -16 -8 -30 5 -17 15 -18 14 -18 -25z"/>
<path d="M602 2060 c0 -19 2 -27 5 -17 2 9 2 25 0 35 -3 9 -5 1 -5 -18z"/>
<path d="M493 1995 c0 -27 2 -38 4 -22 2 15 2 37 0 50 -2 12 -4 0 -4 -28z"/>
<path d="M570 2021 c0 -9 -9 -12 -25 -9 -22 5 -25 2 -25 -24 0 -25 2 -27 19
-19 10 6 21 8 24 4 3 -3 9 7 13 21 3 15 4 30 0 33 -3 4 -6 1 -6 -6z"/>
<path d="M603 1970 c0 -30 2 -43 4 -27 2 15 2 39 0 55 -2 15 -4 2 -4 -28z"/>
<path d="M472 1980 c0 -14 2 -19 5 -12 2 6 2 18 0 25 -3 6 -5 1 -5 -13z"/>
<path d="M492 1915 c0 -16 2 -22 5 -12 2 9 2 23 0 30 -3 6 -5 -1 -5 -18z"/>
<path d="M526 1923 c-3 -4 -6 -22 -6 -41 0 -35 0 -35 21 -16 17 16 22 16 29 4
8 -12 10 -11 10 6 0 22 -42 58 -54 47z"/>
<path d="M473 1880 c0 -25 2 -35 4 -22 2 12 2 32 0 45 -2 12 -4 2 -4 -23z"/>
<path d="M491 1864 c0 -11 3 -14 6 -6 3 7 2 16 -1 19 -3 4 -6 -2 -5 -13z"/>
<path d="M533 1813 c-7 -2 -13 -18 -13 -34 0 -29 13 -38 25 -18 4 6 13 8 21 5
19 -7 18 19 -2 38 -8 9 -16 16 -17 15 -1 0 -8 -3 -14 -6z"/>
<path d="M472 1720 c0 -14 2 -19 5 -12 2 6 2 18 0 25 -3 6 -5 1 -5 -13z"/>
<path d="M493 1690 c0 -25 2 -35 4 -22 2 12 2 32 0 45 -2 12 -4 2 -4 -23z"/>
<path d="M520 1674 c0 -19 5 -34 10 -34 6 0 10 5 10 11 0 6 9 9 20 6 15 -4 20
0 20 13 0 21 -10 29 -40 35 -17 3 -20 -2 -20 -31z"/>
<path d="M521 1586 c-1 -48 0 -49 18 -32 18 17 20 17 30 -1 10 -17 10 -17 11
2 0 22 -13 47 -24 46 -19 -3 -25 1 -29 17 -3 9 -5 -5 -6 -32z"/>
<path d="M491 1564 c0 -11 3 -14 6 -6 3 7 2 16 -1 19 -3 4 -6 -2 -5 -13z"/>
<path d="M491 1514 c0 -11 3 -14 6 -6 3 7 2 16 -1 19 -3 4 -6 -2 -5 -13z"/>
<path d="M520 1404 c0 -56 4 -94 10 -94 6 0 10 6 10 14 0 21 21 31 31 15 7
-10 9 -5 7 16 -2 17 -6 28 -10 25 -4 -3 -15 5 -23 17 -12 17 -13 27 -5 43 12
23 26 26 33 8 3 -7 6 -4 6 7 1 28 -10 40 -36 41 -22 1 -23 -1 -23 -92z"/>
<path d="M493 1455 c0 -22 2 -30 4 -17 2 12 2 30 0 40 -3 9 -5 -1 -4 -23z"/>
<path d="M601 1464 c0 -11 3 -14 6 -6 3 7 2 16 -1 19 -3 4 -6 -2 -5 -13z"/>
<path d="M491 1018 c2 -219 7 -398 12 -398 8 0 -2 781 -10 790 -3 3 -3 -174
-2 -392z"/>
<path d="M521 1155 c-1 -141 5 -168 26 -122 l11 22 10 -25 c10 -23 11 -24 11
-3 1 30 -9 54 -20 47 -14 -8 -22 23 -14 54 6 26 7 27 22 7 14 -19 14 -19 11
10 -2 17 -8 29 -15 28 -16 -4 -27 39 -18 68 7 22 8 22 21 4 14 -18 14 -18 14
1 0 18 -20 58 -20 41 0 -4 -9 -3 -19 3 -19 9 -19 4 -20 -135z"/>
<path d="M472 1005 c0 -16 2 -22 5 -12 2 9 2 23 0 30 -3 6 -5 -1 -5 -18z"/>
<path d="M601 1014 c0 -11 3 -14 6 -6 3 7 2 16 -1 19 -3 4 -6 -2 -5 -13z"/>
<path d="M521 930 l0 -55 15 28 c10 18 21 26 30 23 8 -3 14 0 14 7 0 15 -20
46 -20 32 0 -5 -5 -3 -10 5 -9 13 -10 13 -10 0 0 -13 -1 -13 -10 0 -7 11 -10
-1 -9 -40z"/>
<path d="M474 860 c0 -58 1 -81 3 -52 2 28 2 76 0 105 -2 28 -3 5 -3 -53z"/>
<path d="M603 890 c0 -41 2 -58 4 -37 2 20 2 54 0 75 -2 20 -4 3 -4 -38z"/>
<path d="M533 854 c-7 -7 -13 -28 -13 -46 l0 -33 19 24 c11 14 23 21 30 16 9
-5 12 -1 9 14 -1 12 -7 21 -12 21 -5 -1 -12 3 -15 8 -4 6 -11 4 -18 -4z"/>
<path d="M604 728 c1 -86 1 -87 -21 -82 -15 4 -23 2 -23 -6 0 -7 6 -10 14 -7
7 3 18 1 24 -5 16 -16 18 2 11 97 l-6 90 1 -87z"/>
<path d="M520 719 c0 -21 5 -39 10 -39 6 0 10 6 10 14 0 21 21 31 31 15 6 -11
9 -8 9 8 0 24 -9 32 -40 38 -17 3 -20 -2 -20 -36z"/>
<path d="M521 644 c0 -11 3 -14 6 -6 3 7 2 16 -1 19 -3 4 -6 -2 -5 -13z"/>
<path d="M520 605 c0 -8 4 -15 10 -15 5 0 7 7 4 15 -4 8 -8 15 -10 15 -2 0 -4
-7 -4 -15z"/>
<path d="M3587 1171 c-4 -17 -3 -21 5 -13 5 5 8 16 6 23 -3 8 -7 3 -11 -10z"/>
<path d="M3857 1947 c-3 -8 -2 -29 2 -48 8 -34 8 -34 12 14 4 45 -3 62 -14 34z"/>
<path d="M171 2549 c0 -9 -10 -24 -21 -34 -19 -18 -20 -17 -20 6 0 19 -2 21
-10 9 -12 -18 -13 -87 -2 -94 14 -8 64 82 59 106 -2 13 -5 16 -6 7z"/>
<path d="M116 1553 c-10 -10 -7 -76 4 -93 8 -12 10 -10 10 9 0 20 2 22 16 10
9 -7 20 -22 25 -34 7 -15 8 -10 5 18 -5 37 -48 102 -60 90z"/>
<path d="M1018 503 c7 -3 16 -2 19 1 4 3 -2 6 -13 5 -11 0 -14 -3 -6 -6z"/>
<path d="M2872 503 c48 -2 129 -2 180 0 51 1 12 3 -87 3 -99 0 -141 -2 -93 -3z"/>
<path d="M728 453 c6 -2 18 -2 25 0 6 3 1 5 -13 5 -14 0 -19 -2 -12 -5z"/>
<path d="M778 453 c6 -2 18 -2 25 0 6 3 1 5 -13 5 -14 0 -19 -2 -12 -5z"/>
<path d="M937 453 c51 -2 135 -2 185 0 51 1 10 3 -92 3 -102 0 -143 -2 -93 -3z"/>
<path d="M233 3993 c-22 -8 -14 -23 11 -23 13 0 26 7 30 15 5 15 -15 19 -41 8z"/>
<path d="M310 3991 c0 -6 4 -12 8 -15 13 -8 52 5 46 15 -7 12 -54 12 -54 0z"/>
<path d="M448 3993 c7 -3 16 -2 19 1 4 3 -2 6 -13 5 -11 0 -14 -3 -6 -6z"/>
<path d="M490 3990 c-16 -11 -15 -11 17 -15 12 -1 24 4 27 11 6 16 -21 19 -44
4z"/>
<path d="M564 3965 c0 -23 3 -32 10 -26 13 11 65 16 86 8 39 -14 48 -15 60 -4
10 9 11 9 6 0 -5 -9 0 -10 23 -2 37 13 50 59 16 59 -12 0 -30 -9 -40 -20 -10
-11 -29 -20 -42 -20 -14 0 -36 9 -50 20 -14 11 -35 20 -47 20 -17 0 -21 -6
-22 -35z"/>
<path d="M655 3990 c3 -5 8 -10 11 -10 2 0 4 5 4 10 0 6 -5 10 -11 10 -5 0 -7
-4 -4 -10z"/>
<path d="M815 3992 c17 -12 12 -34 -10 -43 -11 -4 3 -5 32 -2 28 3 66 0 84 -6
25 -9 34 -8 40 1 5 7 21 11 37 10 25 -3 30 1 34 22 6 33 -18 35 -55 6 -24 -19
-94 -29 -83 -11 3 4 -6 13 -20 20 -27 12 -75 15 -59 3z"/>
<path d="M1083 3989 c9 -5 17 -15 17 -20 0 -6 -6 -7 -12 -3 -9 5 -10 4 -3 -4
15 -16 122 -25 170 -15 30 7 41 14 43 31 4 29 -30 30 -65 2 -26 -20 -100 -29
-88 -11 7 13 -27 31 -57 31 -20 -1 -21 -2 -5 -11z"/>
<path d="M1335 3980 c5 -14 2 -20 -10 -20 -9 0 -13 -5 -10 -11 8 -12 63 -3 83
14 11 9 11 13 -4 24 -10 7 -29 13 -42 13 -19 0 -22 -4 -17 -20z"/>
<path d="M1492 3980 c-12 -11 -33 -20 -47 -20 -25 0 -37 -19 -12 -21 6 0 22
-2 35 -3 12 -2 22 1 22 5 0 4 29 6 65 4 37 -2 65 0 65 5 0 6 7 10 15 10 8 0
15 6 15 14 0 15 -21 26 -51 26 -17 0 -18 -3 -9 -20 6 -11 9 -20 8 -21 -43 -11
-50 -9 -46 16 4 20 1 25 -17 25 -11 0 -31 -9 -43 -20z"/>
<path d="M1735 3980 c-10 -11 -31 -20 -47 -20 -28 0 -41 -19 -13 -21 25 -2 55
-1 63 1 4 2 38 3 77 4 60 1 70 4 73 20 5 22 -13 36 -46 36 -19 0 -21 -3 -13
-19 12 -22 5 -31 -22 -31 -15 0 -18 5 -15 25 4 21 1 25 -17 25 -12 0 -30 -9
-40 -20z"/>
<path d="M1977 3980 c-14 -11 -38 -20 -53 -20 -20 0 -25 -3 -17 -11 13 -13 62
-19 69 -8 3 5 30 7 61 5 65 -5 112 16 92 40 -6 8 -22 14 -35 14 -19 0 -23 -5
-21 -22 1 -17 -4 -24 -22 -26 -21 -3 -23 0 -19 22 6 33 -18 35 -55 6z"/>
<path d="M2217 3980 c-14 -11 -38 -20 -53 -20 -20 0 -25 -3 -17 -11 14 -14 73
-18 73 -6 0 5 11 7 24 5 25 -5 36 7 36 38 0 20 -33 17 -63 -6z"/>
<path d="M2318 3974 c3 -16 1 -25 -5 -21 -5 3 -15 2 -23 -4 -11 -6 -8 -9 13
-9 38 0 81 32 64 49 -6 6 -21 11 -33 11 -18 0 -20 -4 -16 -26z"/>
<path d="M2460 3980 c-11 -11 -31 -20 -45 -20 -25 0 -36 -19 -12 -21 6 0 22
-2 35 -3 12 -2 22 2 22 7 0 5 11 7 25 5 19 -4 26 0 34 23 9 27 8 29 -15 29
-13 0 -33 -9 -44 -20z"/>
<path d="M2560 3980 c6 -11 9 -20 8 -21 -2 0 -11 -2 -21 -4 -11 -2 -21 -6 -25
-9 -10 -10 44 -6 78 5 22 8 34 8 39 1 3 -5 51 -10 114 -10 62 0 105 4 101 9
-3 5 -1 9 5 9 5 0 13 -5 16 -11 4 -6 21 -10 39 -9 54 3 76 0 76 -10 0 -5 -6
-10 -14 -10 -7 0 -19 -7 -26 -15 -8 -9 -9 -15 -2 -15 6 0 14 5 17 10 4 6 10 8
14 5 5 -2 17 3 27 11 10 9 13 13 7 9 -7 -3 -13 -2 -13 3 0 17 28 21 97 16 50
-4 64 -3 53 5 -8 6 -10 11 -4 11 5 0 15 -5 20 -10 16 -16 137 -13 128 2 -3 4
4 8 15 8 12 0 21 -4 21 -10 0 -5 16 -10 36 -10 20 0 33 4 29 10 -3 5 -12 7
-20 3 -11 -4 -15 2 -15 21 0 21 -5 26 -24 26 -13 0 -35 -9 -49 -20 -14 -11
-36 -20 -50 -20 -13 0 -32 9 -42 20 -22 25 -96 30 -75 5 17 -20 5 -33 -26 -27
-19 3 -24 9 -21 23 4 14 0 19 -17 19 -24 0 -69 -27 -62 -38 10 -16 -78 2 -95
19 -11 11 -32 19 -48 19 -24 0 -28 -3 -24 -22 4 -19 0 -23 -21 -23 -31 0 -42
21 -18 34 14 9 12 10 -13 11 -16 0 -43 -9 -60 -20 -38 -25 -60 -25 -92 0 -14
11 -36 20 -50 20 -21 0 -22 -3 -13 -20z"/>
<path d="M3402 3980 c13 -21 54 -37 65 -26 11 11 -30 46 -54 46 -21 0 -22 -2
-11 -20z"/>
<path d="M3550 3990 c-12 -8 -9 -10 13 -10 15 0 27 5 27 10 0 13 -20 13 -40 0z"/>
<path d="M3636 3985 c21 -16 54 -20 54 -6 0 9 -33 21 -59 21 -11 0 -9 -4 5
-15z"/>
<path d="M3780 3990 c-13 -9 -13 -10 0 -10 8 0 22 5 30 10 13 9 13 10 0 10 -8
0 -22 -5 -30 -10z"/>
<path d="M423 3963 c9 -2 23 -2 30 0 6 3 -1 5 -18 5 -16 0 -22 -2 -12 -5z"/>
<path d="M30 3940 c0 -5 5 -10 10 -10 6 0 10 5 10 10 0 6 -4 10 -10 10 -5 0
-10 -4 -10 -10z"/>
<path d="M1003 3913 c-22 -8 -14 -21 17 -25 32 -5 37 1 18 20 -13 13 -16 13
-35 5z"/>
<path d="M2887 3904 c-3 -4 -21 -10 -39 -14 -31 -8 -31 -8 15 -9 26 -1 47 3
47 8 0 13 -16 22 -23 15z"/>
<path d="M3293 3886 c-26 -12 -30 -26 -8 -26 9 0 18 7 21 15 4 8 10 13 14 10
5 -3 11 -1 15 5 8 13 -13 11 -42 -4z"/>
<path d="M1303 3883 c9 -2 25 -2 35 0 9 3 1 5 -18 5 -19 0 -27 -2 -17 -5z"/>
<path d="M1938 3883 c7 -3 16 -2 19 1 4 3 -2 6 -13 5 -11 0 -14 -3 -6 -6z"/>
<path d="M728 3873 c7 -3 16 -2 19 1 4 3 -2 6 -13 5 -11 0 -14 -3 -6 -6z"/>
<path d="M3163 3813 c9 -2 23 -2 30 0 6 3 -1 5 -18 5 -16 0 -22 -2 -12 -5z"/>
<path d="M915 3800 l-50 -7 45 -1 c25 -1 52 3 60 8 8 5 11 9 5 8 -5 -1 -32 -4
-60 -8z"/>
<path d="M3 3651 c1 -38 5 -67 10 -64 5 3 7 18 5 34 -4 22 1 33 19 44 28 19
30 35 3 35 -11 0 -20 5 -20 10 0 6 -4 10 -9 10 -5 0 -8 -31 -8 -69z"/>
<path d="M3930 3685 c7 -8 16 -15 21 -15 5 0 9 7 9 15 0 9 -9 15 -21 15 -18 0
-19 -2 -9 -15z"/>
<path d="M70 3503 c0 -19 48 -55 67 -50 15 4 14 5 -4 6 -12 0 -31 13 -42 27
-12 15 -21 22 -21 17z"/>
<path d="M3982 3468 c-16 -16 -15 -43 3 -58 12 -10 15 -10 15 4 0 9 -5 16 -11
16 -8 0 -8 4 1 15 16 19 9 40 -8 23z"/>
<path d="M2 3385 c0 -30 2 -34 14 -24 8 6 14 17 14 24 0 7 -6 18 -14 24 -12
10 -14 6 -14 -24z"/>
<path d="M110 3333 c0 -6 7 -16 15 -23 8 -7 15 -18 15 -26 0 -7 4 -15 9 -19 6
-3 9 4 8 15 -1 21 -47 72 -47 53z"/>
<path d="M3982 3228 c-16 -16 -15 -36 3 -54 13 -14 15 -13 15 5 0 12 -6 21
-12 21 -10 0 -9 3 1 9 7 5 12 14 10 20 -3 9 -8 8 -17 -1z"/>
<path d="M169 3183 c-1 -10 -2 -34 -3 -53 0 -19 -9 -43 -18 -52 -19 -19 -24
-48 -10 -48 16 0 39 65 41 118 1 28 0 52 -3 52 -3 0 -7 -8 -7 -17z"/>
<path d="M3982 2988 c-16 -16 -15 -43 3 -58 13 -10 15 -9 15 9 0 11 -5 21 -11
21 -8 0 -7 5 1 15 16 19 8 29 -8 13z"/>
<path d="M150 2975 c-8 -9 -8 -15 -2 -15 12 0 26 19 19 26 -2 2 -10 -2 -17
-11z"/>
<path d="M76 2962 c-3 -5 3 -17 13 -26 11 -10 22 -13 25 -8 3 5 -3 17 -13 26
-11 10 -22 13 -25 8z"/>
<path d="M3982 2508 c-16 -16 -15 -43 3 -58 13 -10 15 -9 15 9 0 11 -6 21 -12
21 -10 0 -9 3 1 9 7 5 12 14 10 20 -3 9 -8 8 -17 -1z"/>
<path d="M3982 1538 c-16 -16 -15 -43 2 -57 11 -9 14 -4 14 29 1 45 1 45 -16
28z"/>
<path d="M86 1051 c-10 -11 -13 -22 -8 -25 5 -3 17 3 26 13 10 11 13 22 8 25
-5 3 -17 -3 -26 -13z"/>
<path d="M150 1015 c7 -9 15 -13 17 -11 7 7 -7 26 -19 26 -6 0 -6 -6 2 -15z"/>
<path d="M135 938 c4 -13 12 -27 19 -33 6 -5 11 -23 10 -40 -1 -16 3 -41 7
-55 6 -19 8 -11 7 30 -1 54 -24 120 -41 120 -4 0 -5 -10 -2 -22z"/>
<path d="M3983 814 c-17 -18 -16 -39 2 -54 12 -10 15 -10 15 4 0 9 -6 16 -12
16 -10 0 -10 3 0 9 8 5 12 15 10 24 -2 13 -5 13 -15 1z"/>
<path d="M140 706 c-5 -13 -14 -27 -19 -31 -6 -3 -11 -11 -11 -17 0 -20 46 31
47 52 2 27 -5 25 -17 -4z"/>
<path d="M2 608 c-1 -28 1 -30 15 -15 9 8 13 23 10 31 -10 27 -24 18 -25 -16z"/>
<path d="M3982 588 c-16 -16 -15 -43 3 -58 12 -10 15 -10 15 3 0 9 -5 19 -11
23 -8 5 -8 9 1 14 7 4 11 13 9 19 -3 9 -8 8 -17 -1z"/>
<path d="M93 528 c-11 -13 -24 -30 -28 -38 -4 -8 5 -1 21 17 16 17 38 34 49
36 19 5 19 5 -1 6 -11 0 -30 -9 -41 -21z"/>
<path d="M4 375 c0 -24 3 -42 8 -39 4 3 8 0 8 -5 0 -6 -4 -11 -10 -11 -5 0
-10 -10 -10 -22 0 -17 3 -19 12 -10 7 7 20 12 30 12 25 0 22 17 -5 35 -18 11
-23 22 -19 44 2 16 0 31 -5 34 -6 4 -10 -13 -9 -38z"/>
<path d="M3930 315 c-10 -13 -9 -15 9 -15 12 0 21 6 21 15 0 8 -4 15 -9 15 -5
0 -14 -7 -21 -15z"/>
<path d="M871 206 c2 -2 29 -6 59 -9 37 -4 50 -3 40 3 -14 9 -109 15 -99 6z"/>
<path d="M3163 183 c9 -2 23 -2 30 0 6 3 -1 5 -18 5 -16 0 -22 -2 -12 -5z"/>
<path d="M2989 159 c-16 -16 -18 -23 -8 -35 16 -19 36 -18 66 6 14 11 32 20
39 20 8 0 14 5 14 11 0 6 -9 8 -22 3 -13 -4 -33 -8 -45 -10 -12 -1 -27 -5 -32
-9 -18 -11 -12 7 7 21 9 7 14 14 10 14 -5 0 -17 -9 -29 -21z"/>
<path d="M3270 133 c0 -8 48 -33 63 -33 4 0 5 5 2 10 -4 6 -10 8 -15 5 -4 -3
-10 2 -14 10 -5 15 -36 21 -36 8z"/>
<path d="M728 123 c7 -3 16 -2 19 1 4 3 -2 6 -13 5 -11 0 -14 -3 -6 -6z"/>
<path d="M1018 112 c-31 -4 -37 -17 -11 -26 9 -4 23 0 32 8 18 19 14 22 -21
18z"/>
<path d="M1303 113 c9 -2 25 -2 35 0 9 3 1 5 -18 5 -19 0 -27 -2 -17 -5z"/>
<path d="M2821 115 c3 -2 19 -5 37 -7 18 -1 32 -6 32 -11 0 -4 5 -5 10 -2 23
14 7 25 -37 25 -25 0 -44 -2 -42 -5z"/>
<path d="M2946 95 c4 -8 15 -15 25 -15 10 0 19 -4 19 -10 0 -11 -21 -13 -82
-10 -22 1 -38 -3 -38 -9 0 -6 -5 -11 -11 -11 -5 0 -8 4 -4 9 7 13 -208 10
-216 -2 -4 -6 -19 -5 -39 2 -34 11 -88 15 -78 5 4 -3 14 -7 25 -9 10 -2 19 -4
21 -4 1 -1 -2 -10 -8 -21 -9 -17 -8 -20 13 -20 14 0 36 9 50 20 32 25 54 25
92 0 17 -11 43 -20 59 -20 28 0 29 1 10 14 -22 17 -14 29 22 31 21 1 25 -3 21
-22 -4 -20 0 -23 24 -23 16 0 38 9 49 20 13 13 33 20 56 20 27 0 37 5 41 20 3
11 10 17 17 14 6 -3 2 1 -8 10 -10 8 -22 13 -27 11 -4 -3 -10 -1 -14 5 -10 16
-25 12 -19 -5z"/>
<path d="M30 60 c0 -5 5 -10 10 -10 6 0 10 5 10 10 0 6 -4 10 -10 10 -5 0 -10
-4 -10 -10z"/>
<path d="M564 35 c1 -29 5 -35 22 -35 12 0 33 9 47 20 32 26 69 26 92 0 10
-11 28 -20 40 -20 18 0 21 4 17 25 -2 14 -11 26 -18 27 -8 0 -20 1 -26 2 -7 1
-16 6 -20 11 -5 6 -8 5 -8 -2 0 -7 -7 -10 -15 -7 -8 4 -23 3 -32 -1 -22 -10
-74 -6 -89 6 -7 6 -10 -3 -10 -26z"/>
<path d="M920 58 c-14 -5 -50 -8 -80 -5 -36 4 -48 2 -33 -3 15 -6 21 -15 18
-30 -2 -12 1 -20 10 -20 23 0 65 22 59 31 -11 18 59 8 83 -11 35 -27 60 -26
58 2 -1 19 -8 23 -35 24 -19 0 -35 5 -38 12 -4 14 -9 14 -42 0z"/>
<path d="M1433 63 c-22 -8 -14 -23 12 -23 14 0 35 -9 47 -20 12 -11 32 -20 43
-20 18 0 21 5 17 25 -4 25 3 27 46 16 1 -1 -2 -10 -8 -21 -9 -17 -8 -20 9 -20
32 0 51 11 51 30 0 11 -4 22 -10 25 -6 4 -7 -1 -4 -12 5 -17 5 -17 -8 -1 -11
13 -27 16 -76 13 -34 -2 -62 -1 -62 3 0 8 -39 11 -57 5z"/>
<path d="M1673 63 c-23 -8 -13 -23 15 -23 16 0 37 -9 47 -20 10 -11 28 -20 40
-20 18 0 21 4 17 25 -3 20 0 25 15 25 27 0 34 -9 22 -31 -8 -16 -6 -19 10 -19
32 0 51 11 51 30 0 11 -5 22 -12 26 -7 5 -8 3 -3 -7 7 -11 6 -12 -6 -2 -8 7
-36 10 -68 8 -30 -2 -59 -1 -65 2 -13 9 -48 12 -63 6z"/>
<path d="M1912 54 c-15 -12 -14 -13 11 -14 16 0 40 -9 54 -20 37 -29 63 -27
57 6 -4 22 -1 25 18 22 17 -2 22 -9 21 -26 -2 -17 2 -22 21 -22 13 0 29 6 35
14 20 24 -27 45 -89 41 -29 -2 -58 -1 -64 2 -18 12 -46 10 -64 -3z"/>
<path d="M2158 56 c-22 -10 -22 -10 7 -14 16 -2 40 -12 53 -23 29 -22 62 -25
62 -5 0 31 -11 43 -36 38 -13 -2 -24 0 -24 6 0 13 -30 12 -62 -2z"/>
<path d="M2408 62 c-27 -5 -21 -22 7 -22 14 0 34 -9 45 -20 11 -11 31 -20 44
-20 23 0 24 2 15 29 -8 23 -15 27 -34 23 -14 -2 -25 0 -25 5 0 9 -22 11 -52 5z"/>
<path d="M3200 63 c-14 -3 -29 -9 -34 -14 -6 -5 -15 -9 -20 -9 -6 0 -4 5 4 10
11 8 -8 9 -63 6 -44 -2 -83 -8 -89 -14 -13 -13 28 -42 60 -42 21 0 22 2 12 15
-13 15 -14 15 35 30 20 6 29 -13 15 -30 -21 -25 53 -20 75 5 10 11 29 20 42
20 14 0 36 -9 50 -20 14 -11 36 -20 49 -20 19 0 24 5 24 26 0 19 4 25 15 21 8
-4 17 -2 20 3 4 6 -9 10 -29 10 -20 0 -36 -4 -36 -10 0 -5 -7 -10 -15 -10 -8
0 -15 4 -15 8 0 4 -8 8 -17 8 -10 0 -27 3 -38 6 -11 3 -31 3 -45 1z"/>
<path d="M1116 51 c-16 -3 -31 -12 -34 -20 -3 -9 0 -11 9 -7 8 4 5 0 -5 -8
-19 -16 -19 -16 3 -16 29 0 63 18 56 31 -11 17 60 9 90 -11 41 -27 67 -26 63
2 -2 16 -12 25 -33 29 -38 8 -112 8 -149 0z"/>
<path d="M1305 49 c4 -5 13 -9 22 -9 10 0 14 -6 10 -20 -4 -16 0 -20 17 -20
12 0 30 6 40 13 16 11 16 15 3 25 -18 15 -100 25 -92 11z"/>
<path d="M2282 54 c4 -3 14 -7 25 -9 10 -2 19 -4 21 -4 1 -1 -2 -10 -8 -21 -9
-17 -8 -20 13 -20 39 0 50 20 22 41 -20 17 -88 28 -73 13z"/>
<path d="M3408 28 l-23 -23 23 -3 c23 -3 62 22 62 40 0 17 -41 7 -62 -14z"/>
<path d="M423 33 c9 -2 23 -2 30 0 6 3 -1 5 -18 5 -16 0 -22 -2 -12 -5z"/>
<path d="M220 21 c0 -10 24 -21 46 -21 8 0 11 6 8 15 -6 16 -54 21 -54 6z"/>
<path d="M317 24 c-14 -14 -7 -24 17 -24 14 0 28 4 31 10 3 6 2 10 -4 10 -5 0
-16 2 -23 5 -8 3 -17 2 -21 -1z"/>
<path d="M486 21 c-7 -10 17 -21 42 -21 15 1 14 3 -2 15 -23 17 -33 19 -40 6z"/>
<path d="M3540 20 c0 -8 25 -20 41 -20 20 0 7 18 -16 22 -14 3 -25 2 -25 -2z"/>
<path d="M3636 15 c-19 -15 -19 -15 1 -15 28 0 53 10 53 21 0 14 -33 10 -54
-6z"/>
<path d="M0 10 c0 -5 7 -10 16 -10 8 0 12 5 9 10 -3 6 -10 10 -16 10 -5 0 -9
-4 -9 -10z"/>
<path d="M3210 10 c-9 -6 -10 -10 -3 -10 6 0 15 5 18 10 8 12 4 12 -15 0z"/>
<path d="M3780 10 c8 -5 22 -10 30 -10 13 0 13 1 0 10 -8 5 -22 10 -30 10 -13
0 -13 -1 0 -10z"/>
<path d="M448 3 c7 -3 16 -2 19 1 4 3 -2 6 -13 5 -11 0 -14 -3 -6 -6z"/>
</g>
</svg>
